<?xml version="1.0" encoding="utf-8"?>
<!-- Generator: Adobe Illustrator 25.0.0, SVG Export Plug-In . SVG Version: 6.00 Build 0)  -->
<svg version="1.1" id="Layer_1" xmlns="http://www.w3.org/2000/svg" xmlns:xlink="http://www.w3.org/1999/xlink" x="0px" y="0px"
	 viewBox="0 0 1403.4 918.5" style="enable-background:new 0 0 1403.4 918.5;" xml:space="preserve">
<style type="text/css">
	.st0{display:none;fill:url(#SVGID_1_);}
	.st1{fill:#6E3321;}
	.st2{fill:#562412;}
	.st3{opacity:0.2;fill:#FFFFFF;enable-background:new    ;}
	.st4{opacity:0.39;fill:#562412;enable-background:new    ;}
	.st5{opacity:0.56;}
	.st6{fill:#95B8A9;fill-opacity:0;}
	.st7{opacity:1.290000e-02;fill:#92B2A6;enable-background:new    ;}
	.st8{opacity:2.580000e-02;fill:#8FAEA4;enable-background:new    ;}
	.st9{opacity:3.870000e-02;fill:#8CABA2;enable-background:new    ;}
	.st10{opacity:5.160000e-02;fill:#88A7A0;enable-background:new    ;}
	.st11{opacity:6.450000e-02;fill:#85A39E;enable-background:new    ;}
	.st12{opacity:7.740000e-02;fill:#82A09C;enable-background:new    ;}
	.st13{opacity:9.030000e-02;fill:#809C9A;enable-background:new    ;}
	.st14{opacity:0.1032;fill:#7D9998;enable-background:new    ;}
	.st15{opacity:0.1161;fill:#7A9695;enable-background:new    ;}
	.st16{opacity:0.129;fill:#779293;enable-background:new    ;}
	.st17{opacity:0.1419;fill:#748F91;enable-background:new    ;}
	.st18{opacity:0.1548;fill:#728C8F;enable-background:new    ;}
	.st19{opacity:0.1677;fill:#6F888D;enable-background:new    ;}
	.st20{opacity:0.1806;fill:#6C858C;enable-background:new    ;}
	.st21{opacity:0.1935;fill:#6A828A;enable-background:new    ;}
	.st22{opacity:0.2065;fill:#677E88;enable-background:new    ;}
	.st23{opacity:0.2194;fill:#657B86;enable-background:new    ;}
	.st24{opacity:0.2323;fill:#627884;enable-background:new    ;}
	.st25{opacity:0.2452;fill:#607582;enable-background:new    ;}
	.st26{opacity:0.2581;fill:#5D7280;enable-background:new    ;}
	.st27{opacity:0.271;fill:#5A6F7E;enable-background:new    ;}
	.st28{opacity:0.2839;fill:#586C7D;enable-background:new    ;}
	.st29{opacity:0.2968;fill:#556A7B;enable-background:new    ;}
	.st30{opacity:0.3097;fill:#536779;enable-background:new    ;}
	.st31{opacity:0.3226;fill:#506478;enable-background:new    ;}
	.st32{opacity:0.3355;fill:#4E6176;enable-background:new    ;}
	.st33{opacity:0.3484;fill:#4B5F74;enable-background:new    ;}
	.st34{opacity:0.3613;fill:#485C73;enable-background:new    ;}
	.st35{opacity:0.3742;fill:#455A71;enable-background:new    ;}
	.st36{opacity:0.3871;fill:#435770;enable-background:new    ;}
	.st37{opacity:0.4;fill:#40556E;enable-background:new    ;}
	.st38{fill:#542210;}
	.st39{fill:#FABA48;}
	.st40{opacity:0.31;fill:#FFFFFF;enable-background:new    ;}
	.st41{fill:#F6A437;}
	.st42{opacity:0.32;fill:#FFFFFF;enable-background:new    ;}
	.st43{fill:#E69331;}
	.st44{display:none;}
	.st45{display:inline;fill:#6E8896;}
	.st46{display:none;fill:#FFFFFF;}
</style>
<radialGradient id="SVGID_1_" cx="587.6549" cy="491.1988" r="890.6368" fx="173.9158" fy="819.1243" gradientTransform="matrix(1.2197 0 0 -0.857 -7.7193 765.2757)" gradientUnits="userSpaceOnUse">
	<stop  offset="0" style="stop-color:#F0F3F2"/>
	<stop  offset="0.2569" style="stop-color:#E6ECED"/>
	<stop  offset="0.6214" style="stop-color:#CEDCE2"/>
	<stop  offset="1" style="stop-color:#B0CAD4"/>
</radialGradient>
<rect class="st0" width="1403.4" height="920"/>
<g>
	<path class="st1" d="M516.3,794.5v-4.4c0-32.9-26.9-59.8-59.8-59.8H167.4c-32.9,0-59.8,26.9-59.8,59.8v4.4H516.3z"/>
	<path class="st2" d="M465.4,730.8c0.4-1.1,0.5-2.2,0.5-3.4v-1.8c0-6.1-5-11.2-11.2-11.2H169.2c-6.1,0-11.2,5-11.2,11.2v1.8
		c0,1.2,0.2,2.3,0.5,3.4H465.4z"/>
	<path class="st3" d="M276.4,727.5h-102c-2.8,0-5-2.2-5-5l0,0c0-2.8,2.2-5,5-5h102c2.8,0,5,2.2,5,5l0,0
		C281.4,725.3,279.1,727.5,276.4,727.5z"/>
	<path class="st3" d="M271.1,787h-100c-13.5,0-24.5-11-24.5-24.5l0,0c0-13.5,11-24.5,24.5-24.5h100c13.5,0,24.5,11,24.5,24.5l0,0
		C295.6,776,284.6,787,271.1,787z"/>
	<path class="st3" d="M180.9,743h22.8c10.7,0,19.5,8.8,19.5,19.5l0,0c0,10.7-8.8,19.5-19.5,19.5h-22.8c-10.7,0-19.5-8.8-19.5-19.5
		l0,0C161.4,751.8,170.1,743,180.9,743z"/>
	<path class="st3" d="M179.6,719h22.8c1.9,0,3.4,1.5,3.4,3.4l0,0c0,1.9-1.5,3.4-3.4,3.4h-22.8c-1.9,0-3.4-1.5-3.4-3.4l0,0
		C176.2,720.6,177.7,719,179.6,719z"/>
	<path class="st4" d="M463.4,730.8h2.1c0.4-1.1,0.5-2.2,0.5-3.4v-1.8c0-6.1-5-11.2-11.2-11.2H321.1v16.4l0,0v63.7h195.2v-4.4
		C516.3,759.6,493.1,734.2,463.4,730.8z"/>
</g>
<g class="st5">
	<path class="st6" d="M76,797.2c-0.1,15.2,253.6,27.5,566.7,27.5c313,0,566.8-12.4,566.9-27.6c0.1-15.2-253.6-27.5-566.7-27.5
		S76,782,76,797.2z"/>
	<path class="st7" d="M76.9,797.1C76.8,811.9,326.1,824,633.7,824c307.6,0,557.4-12.3,557.1-27c-0.3-14.8-250.5-26.8-556.8-26.8
		C326.4,770.3,77,782.3,76.9,797.1z"/>
	<path class="st8" d="M77.9,797c-0.1,14.4,244.7,26.3,546.8,26.3c302.1,0,548-12.2,547.2-26.4c-0.8-14.5-247.3-26.2-546.9-26.1
		C322.9,771,78,782.6,77.9,797z"/>
	<path class="st9" d="M78.8,797c-0.1,14,240.2,25.8,536.9,25.7c296.6,0,538.5-12.1,537.3-25.8c-1.2-14.2-244.1-25.5-537-25.3
		C319.4,771.7,78.9,783,78.8,797z"/>
	<path class="st10" d="M79.8,796.9c-0.1,13.6,235.8,25.2,527,25.2c291.2,0,529-12,527.4-25.2c-1.7-13.9-240.9-24.8-527.1-24.6
		C316,772.4,79.9,783.3,79.8,796.9z"/>
	<path class="st11" d="M80.8,796.8c-0.1,13.2,231.3,24.6,517,24.6c285.7,0,519.5-12,517.6-24.7c-2.1-13.7-237.8-24.1-517.2-23.9
		C312.5,773.1,80.8,783.6,80.8,796.8z"/>
	<path class="st12" d="M81.7,796.8c-0.1,12.8,226.9,24,507.1,24c280.2,0,510-11.9,507.7-24.1c-2.6-13.5-234.6-23.4-507.3-23.2
		C309,773.8,81.8,784,81.7,796.8z"/>
	<path class="st13" d="M82.7,796.7c-0.1,12.4,222.4,23.4,497.2,23.4c274.8,0,500.5-11.9,497.8-23.5c-3-13.3-231.4-22.7-497.4-22.5
		C305.5,774.5,82.8,784.3,82.7,796.7z"/>
	<path class="st14" d="M83.7,796.7c-0.1,12,217.9,22.8,487.3,22.8c269.3,0,488.6-11.5,488-22.9c-6-12.2-228.2-22.1-487.5-21.8
		C302.1,775.2,83.7,784.6,83.7,796.7z"/>
	<path class="st15" d="M84.6,796.6c-0.1,11.7,213.5,22.2,477.3,22.2c263.8,0,478.9-11.4,478.1-22.3c-6.8-11.8-225-21.4-477.6-21
		C298.6,775.9,84.7,785,84.6,796.6z"/>
	<path class="st16" d="M85.6,796.5c-0.1,11.2,209,21.7,467.4,21.6c258.3,0,469.1-11.3,468.2-21.7c-7.5-11.5-221.9-20.7-467.7-20.3
		C295.1,776.6,85.6,785.3,85.6,796.5z"/>
	<path class="st17" d="M86.5,796.5c-0.1,10.8,204.6,21.1,457.5,21c252.9,0,459.3-11.2,458.4-21.1c-8.3-11.1-218.7-20-457.8-19.6
		C291.6,777.3,86.6,785.6,86.5,796.5z"/>
	<path class="st18" d="M87.5,796.4c-0.1,10.5,200.1,20.5,447.5,20.5c247.4,0,449.5-11,448.5-20.5c-9.1-10.7-215.5-19.3-447.9-18.9
		C288.2,778,87.6,786,87.5,796.4z"/>
	<path class="st19" d="M88.4,796.3c-0.1,10.1,195.6,19.9,437.6,19.9c242,0,439.8-10.9,438.6-19.9c-9.8-10.3-212.3-18.7-438-18.2
		C284.7,778.7,88.5,786.3,88.4,796.3z"/>
	<path class="st20" d="M89.4,796.3c-0.1,9.7,191.2,19.3,427.7,19.3c236.5,0,430-10.8,428.8-19.3c-10.6-10-209.1-18-428.1-17.5
		C281.2,779.4,89.5,786.6,89.4,796.3z"/>
	<path class="st21" d="M90.4,796.2c0,9.3,186.7,18.7,417.8,18.7c231,0,420.2-10.7,418.9-18.8c-11.4-9.6-206-17.3-418.2-16.8
		C277.8,780.1,90.4,787,90.4,796.2z"/>
	<path class="st22" d="M91.3,796.2c0,8.9,182.3,18.1,407.8,18.1c225.5,0,410.4-10.6,409-18.2c-12.1-9.2-202.8-16.6-408.3-16
		C274.3,780.8,91.4,787.3,91.3,796.2z"/>
	<path class="st23" d="M92.3,796.1c0,8.5,177.8,17.5,397.9,17.5c220.1,0,400.7-10.5,399.1-17.6c-12.9-8.8-199.6-15.9-398.4-15.3
		C270.8,781.5,92.3,787.6,92.3,796.1z"/>
	<path class="st24" d="M93.3,796c0,8.1,173.3,17,388,16.9c214.6,0,390.9-10.4,389.3-17c-13.6-8.5-196.4-15.2-388.5-14.6
		C267.3,782.2,93.3,788,93.3,796z"/>
	<path class="st25" d="M94.2,796c0,7.7,168.9,16.4,378,16.3c209.1,0,381.1-10.2,379.4-16.4c-14.4-8.1-193.2-14.5-378.6-13.9
		C263.9,782.9,94.3,788.3,94.2,796z"/>
	<path class="st26" d="M95.2,795.9c0,7.3,164.4,15.8,368.1,15.8c203.7,0,371.3-10.1,369.5-15.8c-15.2-7.7-190.1-13.9-368.8-13.2
		C260.4,783.6,95.2,788.6,95.2,795.9z"/>
	<path class="st27" d="M96.1,795.9c0,6.9,159.9,15.2,358.2,15.2c198.2,0,361.6-10,359.6-15.2c-15.9-7.3-186.9-13.2-358.9-12.5
		C256.9,784.3,96.2,789,96.1,795.9z"/>
	<path class="st28" d="M97.1,795.8c0,6.5,155.5,14.6,348.3,14.6c192.7,0,351.8-9.9,349.8-14.6c-16.7-7-183.7-12.5-349-11.8
		C253.4,785,97.1,789.3,97.1,795.8z"/>
	<path class="st29" d="M98.1,795.7c0,6.1,151,14,338.3,14c187.3,0,342-9.8,339.9-14c-17.5-6.6-180.5-11.8-339.1-11
		C249.9,785.7,98.1,789.6,98.1,795.7z"/>
	<path class="st30" d="M99,795.7c0,5.7,146.6,13.4,328.4,13.4c181.8,0,332.2-9.7,330-13.5c-18.2-6.2-177.4-11.1-329.2-10.3
		C246.5,786.4,99.1,790,99,795.7z"/>
	<path class="st31" d="M100,795.6c0,5.3,142.1,12.8,318.5,12.8c176.3,0,322.5-9.6,320.2-12.9c-19-5.8-174.2-10.5-319.3-9.6
		C243,787.1,100,790.3,100,795.6z"/>
	<path class="st32" d="M100.9,795.5c0,4.9,137.6,12.2,308.6,12.2c170.9,0,312.7-9.5,310.3-12.3c-19.7-5.5-171-9.8-309.4-8.9
		C239.5,787.8,101,790.6,100.9,795.5z"/>
	<path class="st33" d="M101.9,795.5c0,4.5,133.2,11.7,298.6,11.7c165.4,0,302.9-9.3,300.4-11.7c-20.5-5.1-167.8-9.1-299.5-8.2
		C236.1,788.5,101.9,791,101.9,795.5z"/>
	<path class="st34" d="M102.9,795.4c0,4.1,128.7,11.1,288.7,11.1c159.9,0,293.1-9.2,290.6-11.1c-21.2-4.7-164.6-8.4-289.6-7.5
		C232.6,789.2,102.9,791.3,102.9,795.4z"/>
	<path class="st35" d="M103.8,795.4c0,3.7,124.3,10.5,278.8,10.5c154.5,0,283.5-9.5,280.7-10.5c-21.2-7.4-161.5-7.7-279.7-6.7
		C229.1,789.9,103.8,791.6,103.8,795.4z"/>
	<path class="st36" d="M104.8,795.3c0,3.3,119.8,9.9,268.9,9.9c149,0,273.7-9.2,270.8-9.9c-22.4-5.6-158.3-7-269.8-6
		C225.6,790.6,104.8,792,104.8,795.3z"/>
	<path class="st37" d="M105.8,795.2c0,2.9,115.3,9.3,258.9,9.3c143.5,0,263.8-8.9,260.9-9.3c-23.5-3.6-155.1-6.4-259.9-5.3
		C222.2,791.3,105.8,792.3,105.8,795.2z"/>
</g>
<g>
	<path class="st1" d="M508.1,417.3l18-32.7c5.3-9.6,17.4-13.1,27-7.8l25.5,14c9.6,5.3,13.1,17.4,7.8,27l-18,32.7
		c-5.3,9.6-17.4,13.1-27,7.8l-25.5-14C506.4,439,502.9,426.9,508.1,417.3z"/>
	<path class="st1" d="M572.3,441.5l7.6-13.8c6-10.9,19.8-14.9,30.7-8.9l429.8,236.5c10.9,6,14.9,19.8,8.9,30.7l-7.6,13.8
		c-6,10.9-19.8,14.9-30.7,8.9L581.2,472.2C570.3,466.2,566.3,452.4,572.3,441.5z"/>
	<path class="st38" d="M590,240.8L421,547.9c-3.2,5.8-10.5,7.9-16.3,4.7l-144.4-79.5c-5.8-3.2-7.9-10.5-4.7-16.3l169-307.2
		c3.2-5.8,10.5-7.9,16.3-4.7l144.4,79.5C591.1,227.6,593.2,235,590,240.8z"/>
	<path class="st39" d="M547.6,345.7l-61,110.9c-3.2,5.8-10.5,7.9-16.3,4.7L302.4,369c-5.8-3.2-7.9-10.5-4.7-16.3l61-110.9
		c3.2-5.8,10.5-7.9,16.3-4.7l167.8,92.4C548.6,332.5,550.8,339.9,547.6,345.7z"/>
	<path class="st1" d="M472.2,510.4l-19.9,36.2c-4,7.3-13.4,10-20.7,6L245.2,450c-7.4-4-10.1-13.4-6-20.7l19.9-36.2
		c4-7.4,13.4-10,20.7-6l186.4,102.6C473.6,493.7,476.3,503,472.2,510.4z"/>
	<path class="st1" d="M605.7,267.9l-19.9,36.2c-4,7.4-13.4,10-20.7,6L378.6,207.6c-7.4-4-10-13.4-6-20.7l19.9-36.2
		c4-7.4,13.4-10.1,20.7-6l186.4,102.6C607,251.2,609.7,260.6,605.7,267.9z"/>
	<path class="st40" d="M424.8,276.8l-62.2,113c-2.9,5.2-9.5,7.1-14.7,4.3l-25.3-13.9c-5.2-2.9-7.1-9.5-4.3-14.7l62.2-113
		c2.9-5.2,9.5-7.1,14.7-4.3l25.3,13.9C425.8,264.9,427.7,271.5,424.8,276.8z"/>
	<path class="st41" d="M547.6,345.7l-61,110.9c-3.2,5.8-10.5,7.9-16.3,4.7l-39-21.5c-5.8-3.2-7.9-10.5-4.7-16.3l61-110.9
		c3.2-5.8,10.5-7.9,16.3-4.7l39,21.5C548.6,332.5,550.8,339.9,547.6,345.7z"/>
	<path class="st42" d="M401.2,264.9l-60.9,110.6c-1.6,2.9-5.3,4-8.2,2.4l-4.8-2.6c-2.9-1.6-4-5.3-2.4-8.2l60.9-110.6
		c1.6-2.9,5.3-4,8.2-2.4l4.8,2.6C401.7,258.3,402.8,262,401.2,264.9z"/>
	<path class="st4" d="M606,267.3l-20.6,37.4c-3.9,7-12.8,9.6-19.8,5.8l-124.8-68.7c-7-3.9-9.6-12.8-5.8-19.8l20.6-37.4
		c3.9-7,12.8-9.6,19.8-5.8l124.8,68.7C607.3,251.4,609.9,260.3,606,267.3z"/>
	<path class="st4" d="M472.6,509.8L452,547.2c-3.9,7-12.8,9.6-19.8,5.8l-124.8-68.7c-7-3.9-9.6-12.8-5.8-19.8l20.6-37.4
		c3.9-7,12.8-9.6,19.8-5.8L466.8,490C473.9,493.9,476.4,502.8,472.6,509.8z"/>
	<path class="st43" d="M463.6,446.1L526.4,332c2.7-4.9,8.9-6.7,13.8-4l4.2,2.3c4.9,2.7,6.7,8.9,4,13.8l-62.8,114.1
		c-2.7,4.9-8.9,6.7-13.8,4l-4.2-2.3C462.7,457.2,460.9,451,463.6,446.1z"/>
	<path class="st3" d="M382.2,196.5l23.6-42.9c3-5.5,10-7.5,15.5-4.5l13.8,7.6c5.5,3,7.5,10,4.5,15.5L416,215.1
		c-3,5.5-10,7.5-15.5,4.5l-13.8-7.6C381.2,209,379.2,202,382.2,196.5z"/>
	<path class="st3" d="M249.7,439.9l24-43.5c2.9-5.3,9.7-7.3,15-4.4l14.4,7.9c5.3,2.9,7.3,9.7,4.4,15l-24,43.5
		c-2.9,5.3-9.7,7.3-15,4.4l-14.4-7.9C248.7,452,246.7,445.2,249.7,439.9z"/>
	<path class="st2" d="M495.1,441l44.3-80.5c2.1-3.8,7-5.2,10.8-3.1l2,1.1c3.8,2.1,5.2,7,3.1,10.8l-44.3,80.5
		c-2.1,3.8-7,5.2-10.8,3.1l-2-1.1C494.4,449.7,493,444.9,495.1,441z"/>
	<path class="st3" d="M530.2,401.5l-22.4,40.6c-1.1,2.1-3.8,2.9-5.9,1.7l-1.1-0.6c-2.1-1.1-2.9-3.8-1.7-5.9l22.4-40.6
		c1.2-2.1,3.8-2.9,5.9-1.7l1.1,0.6C530.6,396.8,531.4,399.5,530.2,401.5z"/>
	<path class="st3" d="M562.4,428l-9.6,17.5c-3.2,5.8-10.5,7.9-16.3,4.7l-4.8-2.6c-5.8-3.2-7.9-10.5-4.7-16.3l9.6-17.5
		c3.2-5.8,10.5-7.9,16.3-4.7l4.8,2.6C563.4,414.9,565.5,422.2,562.4,428z"/>
	<path class="st3" d="M579.9,450.5l1.5-2.7c2.7-5,9.1-6.8,14-4.1l431.4,237.4c5,2.7,6.8,9.1,4.1,14l-1.5,2.7c-2.7,5-9.1,6.8-14,4.1
		L584,464.6C579,461.9,577.2,455.5,579.9,450.5z"/>
</g>
<g class="st44">
	<path class="st45" d="M818.4,213.6h9.5c3.9,0,6.7,0.6,8.5,1.9c1.8,1.3,2.7,3.4,2.7,6.2c0,1.9-0.5,3.4-1.4,4.7
		c-0.9,1.3-2.2,2-3.8,2.3v0.2c2.1,0.5,3.6,1.3,4.6,2.6c0.9,1.2,1.4,2.9,1.4,5c0,2.9-0.9,5.2-2.7,6.9s-4.3,2.5-7.4,2.5h-11.2
		L818.4,213.6L818.4,213.6z M825,226.6h3.2c1.5,0,2.5-0.3,3.1-1c0.6-0.7,0.9-1.7,0.9-3c0-1.3-0.3-2.3-1-2.9s-1.8-0.9-3.2-0.9H825
		L825,226.6L825,226.6z M825,231.6v9h3.5c1.5,0,2.5-0.4,3.2-1.1c0.7-0.8,1.1-1.9,1.1-3.6c0-2.9-1.5-4.3-4.4-4.3H825z"/>
	<path class="st45" d="M862.6,245.9l-2.2-8.1h-9.7l-2.2,8.1h-7l9.2-32.4h9.4l9.3,32.4H862.6z M859.2,232.4l-2-7.5
		c-0.1-0.5-0.4-1.6-0.8-3.4c-0.4-1.8-0.7-3.1-0.8-3.7c-0.2,1.3-0.5,2.7-0.8,4.2c-0.3,1.5-1.2,5-2.7,10.4H859.2z"/>
	<path class="st45" d="M885.3,218.4c-2,0-3.6,1-4.7,3c-1.2,2-1.7,4.8-1.7,8.4c0,7.5,2.3,11.2,6.8,11.2c2,0,4-0.5,6.2-1.6v5.3
		c-1.8,1-4.2,1.6-7,1.6c-4.2,0-7.4-1.4-9.7-4.3c-2.3-2.9-3.4-6.9-3.4-12.2s1.2-9.3,3.5-12.2s5.5-4.4,9.7-4.4c1.4,0,2.7,0.2,3.9,0.5
		c1.2,0.3,2.6,0.9,4,1.7l-2.3,4.9c-0.8-0.5-1.6-0.9-2.5-1.2S886.3,218.4,885.3,218.4z"/>
	<path class="st45" d="M920.4,245.9H913l-6.1-13.8l-2.8,2.4v11.4h-7v-32.2h7v16l2.4-4.8l6.4-11.2h7.4l-8.6,14L920.4,245.9z"/>
	<path class="st45" d="M934.2,228h11.4v16.6c-3.2,1.2-6.7,1.8-10.3,1.8c-4.3,0-7.7-1.4-10-4.3s-3.5-7-3.5-12.3c0-5.2,1.3-9.2,4-12.2
		c2.7-2.9,6.4-4.4,11.2-4.4c3,0,5.8,0.7,8.5,2l-2.2,4.9c-2.1-1.1-4.1-1.6-5.9-1.6c-2.6,0-4.7,1-6.3,3.1c-1.5,2-2.3,4.8-2.3,8.3
		c0,3.6,0.6,6.4,1.7,8.3c1.1,1.9,2.7,2.9,4.9,2.9c1.1,0,2.3-0.1,3.4-0.4v-7.4h-4.6L934.2,228L934.2,228z"/>
	<path class="st45" d="M958.2,233.3v12.6h-7v-32.2h9.1c3.8,0,6.7,0.8,8.5,2.4s2.8,4,2.8,7.2c0,4.1-1.6,6.9-4.8,8.5l7.2,14.1h-7.4
		l-5.9-12.6H958.2z M958.2,228.1h1.8c1.6,0,2.8-0.4,3.5-1.2c0.7-0.8,1.1-2,1.1-3.6c0-1.6-0.4-2.8-1.1-3.5s-1.9-1.1-3.5-1.1h-1.7
		L958.2,228.1L958.2,228.1z"/>
	<path class="st45" d="M1003.1,229.7c0,5.3-1.2,9.4-3.5,12.3c-2.3,2.9-5.6,4.3-9.9,4.3c-4.3,0-7.6-1.4-10-4.3s-3.5-7-3.5-12.4
		c0-5.3,1.2-9.4,3.5-12.3c2.3-2.9,5.7-4.3,10-4.3c4.3,0,7.6,1.4,9.9,4.3C1002,220.2,1003.1,224.4,1003.1,229.7z M983.4,229.7
		c0,3.7,0.5,6.5,1.6,8.4c1.1,1.9,2.7,2.9,4.7,2.9c4.2,0,6.3-3.8,6.3-11.3c0-7.5-2.1-11.3-6.2-11.3c-2.1,0-3.7,1-4.8,2.9
		C983.9,223.2,983.4,226,983.4,229.7z"/>
	<path class="st45" d="M1031.5,213.6v20.9c0,3.8-1,6.8-3,8.8c-2,2-4.9,3-8.7,3c-3.7,0-6.5-1-8.5-3s-2.9-5-2.9-8.9v-20.8h6.9v21.2
		c0,4.1,1.6,6.1,4.7,6.1c1.5,0,2.6-0.5,3.4-1.6c0.8-1,1.2-2.5,1.2-4.5v-21.4L1031.5,213.6L1031.5,213.6z"/>
	<path class="st45" d="M1064.1,245.9h-8.5l-11.5-23.4h-0.3c0.4,1.8,0.6,3.7,0.6,5.7v17.6h-6.4v-32.2h8.5l11.4,23.1h0.3
		c-0.3-1.5-0.5-3.4-0.5-5.5v-17.6h6.4L1064.1,245.9L1064.1,245.9z"/>
	<path class="st45" d="M1094.4,229.4c0,5.3-1.3,9.4-3.8,12.2s-6.1,4.2-10.8,4.2h-9.1v-32.2h10c4.3,0,7.7,1.4,10.1,4.2
		C1093.2,220.5,1094.4,224.4,1094.4,229.4z M1087.3,229.6c0-7.2-2.3-10.8-6.9-10.8h-2.8v21.8h2.2c2.5,0,4.4-0.9,5.6-2.8
		C1086.7,236,1087.3,233.3,1087.3,229.6z"/>
</g>
<g class="st44">
	<path class="st45" d="M819.2,268.3h1.6v9.7h5.4v1.2h-7L819.2,268.3L819.2,268.3z"/>
	<path class="st45" d="M835.8,275.2c0,2.9-2.3,4.1-4.5,4.1c-2.5,0-4.3-1.5-4.3-4c0-2.6,2-4.1,4.5-4.1
		C834.1,271.1,835.8,272.8,835.8,275.2z M828.7,275.2c0,1.7,1.1,3,2.8,3c1.6,0,2.7-1.3,2.7-3c0-1.3-0.8-3-2.7-3
		S828.7,273.8,828.7,275.2z"/>
	<path class="st45" d="M837.9,273.8c0-0.9,0-1.7-0.1-2.4h1.4l0.1,1.5h0.1c0.4-1,1.4-1.7,2.5-1.7c0.2,0,0.3,0,0.5,0v1.3
		c-0.2,0-0.3,0-0.6,0c-1.2,0-2,0.8-2.2,1.8c0,0.2-0.1,0.4-0.1,0.7v4.2h-1.6L837.9,273.8L837.9,273.8z"/>
	<path class="st45" d="M844.7,275.5c0,1.9,1.5,2.7,3.1,2.7c1.2,0,1.9-0.2,2.5-0.4l0.3,1c-0.6,0.2-1.6,0.5-3,0.5
		c-2.8,0-4.5-1.6-4.5-3.9c0-2.4,1.6-4.2,4.2-4.2c3,0,3.7,2.2,3.7,3.7c0,0.3,0,0.5,0,0.7L844.7,275.5L844.7,275.5z M849.5,274.5
		c0-0.9-0.4-2.3-2.3-2.3c-1.7,0-2.4,1.3-2.5,2.3H849.5z"/>
	<path class="st45" d="M853.2,273.4c0-0.8,0-1.5-0.1-2.1h1.4l0.1,1.3h0c0.5-0.8,1.3-1.4,2.8-1.4c1.2,0,2.2,0.6,2.6,1.6h0
		c0.3-0.4,0.6-0.8,1-1c0.5-0.4,1.1-0.5,2-0.5c1.2,0,3,0.7,3,3.4v4.6h-1.6v-4.4c0-1.5-0.6-2.4-2-2.4c-0.9,0-1.7,0.6-1.9,1.3
		c-0.1,0.2-0.1,0.5-0.1,0.7v4.8h-1.6v-4.7c0-1.2-0.6-2.1-1.9-2.1c-1,0-1.8,0.7-2,1.4c-0.1,0.2-0.1,0.5-0.1,0.7v4.7h-1.6L853.2,273.4
		L853.2,273.4z"/>
	<path class="st45" d="M874.5,269.1c0,0.5-0.4,0.9-1,0.9c-0.6,0-1-0.4-1-0.9c0-0.5,0.4-0.9,1-0.9
		C874.1,268.2,874.5,268.6,874.5,269.1z M872.7,279.1v-7.8h1.7v7.8H872.7z"/>
	<path class="st45" d="M877.1,273.9c0-1,0-1.8-0.1-2.5h1.5l0.1,1.3h0c0.7-1,1.7-1.5,3.2-1.5c2.2,0,3.8,1.6,3.8,4
		c0,2.8-2,4.2-4.1,4.2c-1.2,0-2.2-0.5-2.8-1.2h0v4.2h-1.6L877.1,273.9L877.1,273.9z M878.7,276c0,0.2,0,0.4,0.1,0.6
		c0.3,1,1.3,1.7,2.5,1.7c1.7,0,2.8-1.2,2.8-3c0-1.6-1-2.9-2.7-2.9c-1.1,0-2.2,0.7-2.5,1.8c-0.1,0.2-0.1,0.4-0.1,0.6L878.7,276
		L878.7,276z"/>
	<path class="st45" d="M895.2,277c0,0.8,0,1.5,0.1,2.1h-1.5l-0.1-1.3h0c-0.4,0.6-1.4,1.5-3,1.5c-1.4,0-3.1-0.7-3.1-3.4v-4.6h1.7v4.3
		c0,1.5,0.5,2.5,2,2.5c1.1,0,1.9-0.7,2.2-1.3c0.1-0.2,0.2-0.5,0.2-0.7v-4.8h1.6L895.2,277L895.2,277z"/>
	<path class="st45" d="M898,273.4c0-0.8,0-1.5-0.1-2.1h1.4l0.1,1.3h0c0.5-0.8,1.3-1.4,2.8-1.4c1.2,0,2.2,0.6,2.6,1.6h0
		c0.3-0.4,0.6-0.8,1-1c0.5-0.4,1.1-0.5,2-0.5c1.2,0,3,0.7,3,3.4v4.6h-1.6v-4.4c0-1.5-0.6-2.4-2-2.4c-0.9,0-1.7,0.6-1.9,1.3
		c-0.1,0.2-0.1,0.5-0.1,0.7v4.8h-1.6v-4.7c0-1.2-0.6-2.1-1.9-2.1c-1,0-1.8,0.7-2,1.4c-0.1,0.2-0.1,0.5-0.1,0.7v4.7H898L898,273.4
		L898,273.4z"/>
	<path class="st45" d="M925.3,267.7v9.4c0,0.7,0,1.5,0.1,2h-1.5l-0.1-1.4h0c-0.5,0.9-1.6,1.5-3.1,1.5c-2.2,0-3.9-1.6-3.9-4
		c0-2.6,1.8-4.2,4-4.2c1.4,0,2.3,0.6,2.7,1.2h0v-4.7L925.3,267.7L925.3,267.7z M923.7,274.5c0-0.2,0-0.4-0.1-0.6
		c-0.2-0.9-1.1-1.6-2.4-1.6c-1.7,0-2.7,1.3-2.7,3c0,1.6,0.9,2.9,2.7,2.9c1.1,0,2.1-0.6,2.4-1.7c0.1-0.2,0.1-0.4,0.1-0.6L923.7,274.5
		L923.7,274.5z"/>
	<path class="st45" d="M936.2,275.2c0,2.9-2.3,4.1-4.5,4.1c-2.4,0-4.3-1.5-4.3-4c0-2.6,2-4.1,4.5-4.1
		C934.5,271.1,936.2,272.8,936.2,275.2z M929,275.2c0,1.7,1.1,3,2.7,3c1.6,0,2.8-1.3,2.8-3c0-1.3-0.8-3-2.7-3
		C929.9,272.2,929,273.8,929,275.2z"/>
	<path class="st45" d="M938.3,267.7h1.7v11.5h-1.7V267.7z"/>
	<path class="st45" d="M950.9,275.2c0,2.9-2.3,4.1-4.5,4.1c-2.5,0-4.3-1.5-4.3-4c0-2.6,2-4.1,4.5-4.1
		C949.1,271.1,950.9,272.8,950.9,275.2z M943.7,275.2c0,1.7,1.1,3,2.7,3c1.6,0,2.8-1.3,2.8-3c0-1.3-0.8-3-2.7-3
		S943.7,273.8,943.7,275.2z"/>
	<path class="st45" d="M952.9,273.8c0-0.9,0-1.7-0.1-2.4h1.4l0.1,1.5h0.1c0.4-1,1.4-1.7,2.5-1.7c0.2,0,0.3,0,0.5,0v1.3
		c-0.2,0-0.3,0-0.6,0c-1.2,0-2,0.8-2.2,1.8c0,0.2-0.1,0.4-0.1,0.7v4.2H953L952.9,273.8L952.9,273.8z"/>
	<path class="st45" d="M962.8,277.7c0.5,0.3,1.3,0.6,2.2,0.6c1.2,0,1.8-0.5,1.8-1.2c0-0.7-0.5-1-1.7-1.4c-1.6-0.5-2.4-1.3-2.4-2.2
		c0-1.3,1.2-2.3,3.1-2.3c0.9,0,1.7,0.2,2.2,0.5l-0.4,1c-0.4-0.2-1-0.5-1.8-0.5c-1,0-1.5,0.5-1.5,1.1c0,0.6,0.5,0.9,1.7,1.3
		c1.6,0.5,2.4,1.2,2.4,2.4c0,1.4-1.2,2.3-3.4,2.3c-1,0-1.9-0.2-2.5-0.5L962.8,277.7z"/>
	<path class="st45" d="M972.2,269.1c0,0.5-0.4,0.9-1,0.9c-0.6,0-1-0.4-1-0.9c0-0.5,0.4-0.9,1-0.9
		C971.8,268.2,972.2,268.6,972.2,269.1z M970.4,279.1v-7.8h1.6v7.8H970.4z"/>
	<path class="st45" d="M976.7,269.1v2.2h2.3v1.1h-2.3v4.2c0,1,0.3,1.5,1.2,1.5c0.4,0,0.8,0,1-0.1l0.1,1.1c-0.3,0.1-0.8,0.2-1.5,0.2
		c-0.8,0-1.4-0.2-1.8-0.6c-0.5-0.4-0.6-1.1-0.6-2v-4.3h-1.4v-1.1h1.4v-1.9L976.7,269.1z"/>
	<path class="st45" d="M989.9,279.1l-0.1-1h-0.1c-0.5,0.6-1.5,1.2-2.8,1.2c-1.8,0-2.8-1.1-2.8-2.2c0-1.9,1.9-2.9,5.4-2.9V274
		c0-0.6-0.2-1.8-2-1.8c-0.8,0-1.7,0.2-2.3,0.6l-0.4-0.9c0.7-0.4,1.8-0.7,3-0.7c2.8,0,3.4,1.6,3.4,3.2v2.9c0,0.7,0,1.3,0.2,1.9
		L989.9,279.1L989.9,279.1z M989.7,275.1c-1.8,0-3.8,0.2-3.8,1.8c0,0.9,0.7,1.4,1.5,1.4c1.2,0,1.9-0.6,2.2-1.3
		c0.1-0.1,0.1-0.3,0.1-0.5V275.1z"/>
	<path class="st45" d="M993.9,273.4c0-0.8,0-1.5-0.1-2.1h1.4l0.1,1.3h0.1c0.5-0.8,1.3-1.4,2.8-1.4c1.2,0,2.2,0.6,2.6,1.6h0
		c0.3-0.4,0.6-0.8,1-1c0.5-0.4,1.1-0.5,2-0.5c1.2,0,3,0.7,3,3.4v4.6h-1.6v-4.4c0-1.5-0.6-2.4-2-2.4c-0.9,0-1.7,0.6-1.9,1.3
		c-0.1,0.2-0.1,0.5-0.1,0.7v4.8h-1.6v-4.7c0-1.2-0.6-2.1-1.9-2.1c-1,0-1.8,0.7-2,1.4c-0.1,0.2-0.1,0.5-0.1,0.7v4.7h-1.6V273.4z"/>
	<path class="st45" d="M1010.4,275.5c0,1.9,1.5,2.7,3.1,2.7c1.2,0,1.9-0.2,2.5-0.4l0.3,1c-0.6,0.2-1.6,0.5-3,0.5
		c-2.8,0-4.5-1.6-4.5-3.9c0-2.4,1.6-4.2,4.2-4.2c3,0,3.7,2.2,3.7,3.7c0,0.3,0,0.5-0.1,0.7L1010.4,275.5L1010.4,275.5z M1015.2,274.5
		c0-0.9-0.4-2.3-2.3-2.3c-1.7,0-2.4,1.3-2.5,2.3H1015.2z"/>
	<path class="st45" d="M1020.8,269.1v2.2h2.4v1.1h-2.4v4.2c0,1,0.3,1.5,1.2,1.5c0.4,0,0.8,0,1-0.1l0.1,1.1c-0.3,0.1-0.8,0.2-1.5,0.2
		c-0.8,0-1.4-0.2-1.8-0.6c-0.5-0.4-0.6-1.1-0.6-2v-4.3h-1.4v-1.1h1.4v-1.9L1020.8,269.1z"/>
	<path class="st45" d="M1023.9,281.1c0.4-1,0.9-2.7,1.1-3.9l1.8-0.2c-0.4,1.4-1.2,3.2-1.8,3.9L1023.9,281.1z"/>
	<path class="st45" d="M1039.2,278.8c-0.4,0.2-1.4,0.5-2.6,0.5c-2.7,0-4.5-1.6-4.5-4c0-2.4,1.9-4.1,4.9-4.1c1,0,1.8,0.2,2.3,0.4
		l-0.4,1.1c-0.4-0.2-1-0.4-1.9-0.4c-2.1,0-3.2,1.3-3.2,3c0,1.8,1.3,2.9,3.1,2.9c0.9,0,1.6-0.2,2-0.4L1039.2,278.8z"/>
	<path class="st45" d="M1049.2,275.2c0,2.9-2.3,4.1-4.5,4.1c-2.4,0-4.3-1.5-4.3-4c0-2.6,2-4.1,4.5-4.1
		C1047.4,271.1,1049.2,272.8,1049.2,275.2z M1042,275.2c0,1.7,1.1,3,2.8,3c1.6,0,2.7-1.3,2.7-3c0-1.3-0.8-3-2.7-3
		C1042.9,272.2,1042,273.8,1042,275.2z"/>
	<path class="st45" d="M1051.3,273.4c0-0.8,0-1.5-0.1-2.1h1.5l0.1,1.3h0c0.4-0.7,1.5-1.5,3-1.5c1.2,0,3.2,0.6,3.2,3.3v4.7h-1.7v-4.5
		c0-1.3-0.5-2.3-2.1-2.3c-1.1,0-1.9,0.7-2.2,1.5c-0.1,0.2-0.1,0.4-0.1,0.7v4.7h-1.6V273.4z"/>
	<path class="st45" d="M1061.4,277.7c0.5,0.3,1.3,0.6,2.2,0.6c1.2,0,1.8-0.5,1.8-1.2c0-0.7-0.5-1-1.7-1.4c-1.6-0.5-2.4-1.3-2.4-2.2
		c0-1.3,1.2-2.3,3.1-2.3c0.9,0,1.7,0.2,2.2,0.5l-0.4,1c-0.3-0.2-1-0.5-1.8-0.5c-1,0-1.5,0.5-1.5,1.1c0,0.6,0.5,0.9,1.7,1.3
		c1.6,0.5,2.4,1.2,2.4,2.4c0,1.4-1.2,2.3-3.4,2.3c-1,0-1.9-0.2-2.5-0.5L1061.4,277.7z"/>
	<path class="st45" d="M1069.9,275.5c0,1.9,1.5,2.7,3.1,2.7c1.2,0,1.9-0.2,2.5-0.4l0.3,1c-0.6,0.2-1.6,0.5-3,0.5
		c-2.8,0-4.4-1.6-4.4-3.9c0-2.4,1.6-4.2,4.2-4.2c2.9,0,3.7,2.2,3.7,3.7c0,0.3,0,0.5-0.1,0.7L1069.9,275.5L1069.9,275.5z
		 M1074.8,274.5c0-0.9-0.4-2.3-2.3-2.3c-1.7,0-2.4,1.3-2.5,2.3H1074.8z"/>
	<path class="st45" d="M1084.8,278.8c-0.4,0.2-1.4,0.5-2.6,0.5c-2.7,0-4.5-1.6-4.5-4c0-2.4,1.9-4.1,4.9-4.1c1,0,1.8,0.2,2.3,0.4
		l-0.4,1.1c-0.4-0.2-1-0.4-1.9-0.4c-2.1,0-3.2,1.3-3.2,3c0,1.8,1.3,2.9,3.1,2.9c0.9,0,1.6-0.2,2-0.4L1084.8,278.8z"/>
	<path class="st45" d="M1089,269.1v2.2h2.3v1.1h-2.3v4.2c0,1,0.3,1.5,1.2,1.5c0.4,0,0.8,0,1-0.1l0.1,1.1c-0.3,0.1-0.8,0.2-1.5,0.2
		c-0.8,0-1.4-0.2-1.8-0.6c-0.5-0.4-0.6-1.1-0.6-2v-4.3h-1.4v-1.1h1.4v-1.9L1089,269.1z"/>
	<path class="st45" d="M1094,275.5c0,1.9,1.5,2.7,3.1,2.7c1.2,0,1.9-0.2,2.5-0.4l0.3,1c-0.6,0.2-1.6,0.5-3,0.5
		c-2.8,0-4.4-1.6-4.4-3.9c0-2.4,1.6-4.2,4.2-4.2c2.9,0,3.7,2.2,3.7,3.7c0,0.3,0,0.5-0.1,0.7L1094,275.5L1094,275.5z M1098.8,274.5
		c0-0.9-0.4-2.3-2.3-2.3c-1.7,0-2.4,1.3-2.5,2.3H1098.8z"/>
	<path class="st45" d="M1104.4,269.1v2.2h2.3v1.1h-2.3v4.2c0,1,0.3,1.5,1.2,1.5c0.4,0,0.8,0,1-0.1l0.1,1.1c-0.3,0.1-0.8,0.2-1.4,0.2
		c-0.8,0-1.4-0.2-1.8-0.6c-0.5-0.4-0.6-1.1-0.6-2v-4.3h-1.4v-1.1h1.4v-1.9L1104.4,269.1z"/>
	<path class="st45" d="M1116.2,277c0,0.8,0,1.5,0.1,2.1h-1.5l-0.1-1.3h0c-0.4,0.6-1.4,1.5-3,1.5c-1.4,0-3.1-0.7-3.1-3.4v-4.6h1.6
		v4.3c0,1.5,0.5,2.5,2,2.5c1.1,0,1.9-0.7,2.2-1.3c0.1-0.2,0.2-0.5,0.2-0.7v-4.8h1.7L1116.2,277L1116.2,277z"/>
	<path class="st45" d="M1118.9,273.8c0-0.9,0-1.7-0.1-2.4h1.4l0.1,1.5h0.1c0.4-1,1.4-1.7,2.5-1.7c0.2,0,0.3,0,0.5,0v1.3
		c-0.2,0-0.3,0-0.6,0c-1.2,0-2,0.8-2.2,1.8c0,0.2-0.1,0.4-0.1,0.7v4.2h-1.6V273.8z"/>
	<path class="st45" d="M1133.9,279.1l-0.1-1h-0.1c-0.5,0.6-1.5,1.2-2.8,1.2c-1.8,0-2.8-1.1-2.8-2.2c0-1.9,1.9-2.9,5.4-2.9V274
		c0-0.6-0.2-1.8-2.1-1.8c-0.8,0-1.7,0.2-2.3,0.6l-0.4-0.9c0.8-0.4,1.8-0.7,3-0.7c2.8,0,3.4,1.6,3.4,3.2v2.9c0,0.7,0,1.3,0.2,1.9
		L1133.9,279.1L1133.9,279.1z M1133.7,275.1c-1.8,0-3.8,0.2-3.8,1.8c0,0.9,0.7,1.4,1.6,1.4c1.2,0,1.9-0.6,2.2-1.3
		c0.1-0.1,0.1-0.3,0.1-0.5V275.1z"/>
	<path class="st45" d="M1145.8,267.7v9.4c0,0.7,0,1.5,0.1,2h-1.5l-0.1-1.4h0c-0.5,0.9-1.6,1.5-3.1,1.5c-2.2,0-3.9-1.6-3.9-4
		c0-2.6,1.8-4.2,4.1-4.2c1.4,0,2.3,0.6,2.7,1.2h0v-4.7L1145.8,267.7L1145.8,267.7z M1144.1,274.5c0-0.2,0-0.4-0.1-0.6
		c-0.2-0.9-1.1-1.6-2.4-1.6c-1.7,0-2.7,1.3-2.7,3c0,1.6,0.9,2.9,2.7,2.9c1.1,0,2.1-0.6,2.4-1.7c0.1-0.2,0.1-0.4,0.1-0.6
		L1144.1,274.5L1144.1,274.5z"/>
	<path class="st45" d="M1150.3,269.1c0,0.5-0.4,0.9-1,0.9c-0.6,0-1-0.4-1-0.9c0-0.5,0.4-0.9,1-0.9
		C1149.9,268.2,1150.3,268.6,1150.3,269.1z M1148.5,279.1v-7.8h1.6v7.8H1148.5z"/>
	<path class="st45" d="M1152.8,273.9c0-1,0-1.8-0.1-2.5h1.5l0.1,1.3h0c0.7-1,1.7-1.5,3.2-1.5c2.2,0,3.8,1.6,3.8,4
		c0,2.8-2,4.2-4.1,4.2c-1.2,0-2.2-0.5-2.8-1.2h0v4.2h-1.6L1152.8,273.9L1152.8,273.9z M1154.5,276c0,0.2,0,0.4,0.1,0.6
		c0.3,1,1.3,1.7,2.5,1.7c1.7,0,2.7-1.2,2.7-3c0-1.6-0.9-2.9-2.7-2.9c-1.1,0-2.2,0.7-2.5,1.8c-0.1,0.2-0.1,0.4-0.1,0.6L1154.5,276
		L1154.5,276z"/>
	<path class="st45" d="M1165.3,269.1c0,0.5-0.4,0.9-1.1,0.9c-0.6,0-1-0.4-1-0.9c0-0.5,0.4-0.9,1-0.9
		C1164.9,268.2,1165.3,268.6,1165.3,269.1z M1163.5,279.1v-7.8h1.6v7.8H1163.5z"/>
	<path class="st45" d="M1167.6,277.7c0.5,0.3,1.3,0.6,2.2,0.6c1.2,0,1.8-0.5,1.8-1.2c0-0.7-0.5-1-1.7-1.4c-1.6-0.5-2.4-1.3-2.4-2.2
		c0-1.3,1.2-2.3,3.1-2.3c0.9,0,1.7,0.2,2.2,0.5l-0.4,1c-0.4-0.2-1-0.5-1.8-0.5c-1,0-1.5,0.5-1.5,1.1c0,0.6,0.5,0.9,1.7,1.3
		c1.6,0.5,2.4,1.2,2.4,2.4c0,1.4-1.2,2.3-3.4,2.3c-1,0-1.9-0.2-2.5-0.5L1167.6,277.7z"/>
	<path class="st45" d="M1181.7,278.8c-0.4,0.2-1.4,0.5-2.6,0.5c-2.7,0-4.5-1.6-4.5-4c0-2.4,1.9-4.1,4.8-4.1c1,0,1.8,0.2,2.3,0.4
		l-0.4,1.1c-0.4-0.2-1-0.4-1.9-0.4c-2.1,0-3.2,1.3-3.2,3c0,1.8,1.3,2.9,3.1,2.9c0.9,0,1.6-0.2,2-0.4L1181.7,278.8z"/>
	<path class="st45" d="M1185.4,269.1c0,0.5-0.4,0.9-1.1,0.9c-0.6,0-1-0.4-1-0.9c0-0.5,0.4-0.9,1-0.9
		C1185,268.2,1185.4,268.6,1185.4,269.1z M1183.6,279.1v-7.8h1.7v7.8H1183.6z"/>
	<path class="st45" d="M1188,273.4c0-0.8,0-1.5-0.1-2.1h1.5l0.1,1.3h0c0.4-0.7,1.5-1.5,3-1.5c1.2,0,3.2,0.6,3.2,3.3v4.7h-1.6v-4.5
		c0-1.3-0.5-2.3-2.1-2.3c-1.1,0-1.9,0.7-2.2,1.5c-0.1,0.2-0.1,0.4-0.1,0.7v4.7h-1.7V273.4z"/>
	<path class="st45" d="M1206.1,271.3c0,0.6-0.1,1.2-0.1,2.1v4.5c0,1.8-0.4,2.9-1.3,3.6c-0.9,0.7-2.2,0.9-3.3,0.9
		c-1.1,0-2.3-0.2-3-0.6l0.4-1.1c0.6,0.3,1.5,0.6,2.7,0.6c1.7,0,2.9-0.8,2.9-2.7v-0.9h0c-0.5,0.7-1.5,1.3-2.9,1.3
		c-2.2,0-3.8-1.6-3.8-3.8c0-2.6,2-4.1,4.1-4.1c1.6,0,2.4,0.7,2.8,1.4h0l0.1-1.2L1206.1,271.3L1206.1,271.3z M1204.4,274.4
		c0-0.2,0-0.5-0.1-0.6c-0.3-0.8-1.1-1.5-2.3-1.5c-1.6,0-2.7,1.1-2.7,3c0,1.5,0.9,2.8,2.7,2.8c1,0,1.9-0.5,2.3-1.5
		c0.1-0.2,0.1-0.5,0.1-0.8L1204.4,274.4L1204.4,274.4z"/>
	<path class="st45" d="M1213.6,275.5c0,1.9,1.5,2.7,3.1,2.7c1.2,0,1.9-0.2,2.5-0.4l0.3,1c-0.6,0.2-1.6,0.5-3,0.5
		c-2.8,0-4.4-1.6-4.4-3.9c0-2.4,1.6-4.2,4.2-4.2c2.9,0,3.7,2.2,3.7,3.7c0,0.3,0,0.5-0.1,0.7L1213.6,275.5L1213.6,275.5z
		 M1218.4,274.5c0-0.9-0.4-2.3-2.3-2.3c-1.7,0-2.4,1.3-2.5,2.3H1218.4z"/>
	<path class="st45" d="M1222.1,267.7h1.6v11.5h-1.6V267.7z"/>
	<path class="st45" d="M1228.3,269.1c0,0.5-0.4,0.9-1,0.9c-0.6,0-1-0.4-1-0.9c0-0.5,0.4-0.9,1-0.9
		C1227.9,268.2,1228.3,268.6,1228.3,269.1z M1226.5,279.1v-7.8h1.7v7.8H1226.5z"/>
	<path class="st45" d="M1232.8,269.1v2.2h2.3v1.1h-2.3v4.2c0,1,0.3,1.5,1.2,1.5c0.4,0,0.8,0,0.9-0.1l0.1,1.1
		c-0.3,0.1-0.8,0.2-1.5,0.2c-0.8,0-1.4-0.2-1.8-0.6c-0.5-0.4-0.6-1.1-0.6-2v-4.3h-1.4v-1.1h1.4v-1.9L1232.8,269.1z"/>
	<path class="st45" d="M1251.7,274.4c-0.1-1.5-0.2-3.3-0.2-4.7h-0.1c-0.4,1.3-0.9,2.6-1.6,4.1l-2.2,5.3h-1.2l-2-5.2
		c-0.6-1.5-1.1-2.9-1.5-4.2h0c0,1.4-0.1,3.2-0.2,4.8l-0.3,4.7h-1.6l0.9-10.9h2.1l2.2,5.3c0.5,1.3,0.9,2.5,1.3,3.7h0.1
		c0.3-1.1,0.8-2.3,1.3-3.7l2.2-5.3h2.1l0.8,10.9h-1.6L1251.7,274.4z"/>
	<path class="st45" d="M1261.1,279.1l-0.1-1h-0.1c-0.5,0.6-1.5,1.2-2.8,1.2c-1.8,0-2.8-1.1-2.8-2.2c0-1.9,1.9-2.9,5.4-2.9V274
		c0-0.6-0.2-1.8-2.1-1.8c-0.8,0-1.7,0.2-2.3,0.6l-0.4-0.9c0.7-0.4,1.8-0.7,3-0.7c2.8,0,3.4,1.6,3.4,3.2v2.9c0,0.7,0,1.3,0.2,1.9
		L1261.1,279.1L1261.1,279.1z M1260.9,275.1c-1.8,0-3.8,0.2-3.8,1.8c0,0.9,0.7,1.4,1.6,1.4c1.2,0,1.9-0.6,2.2-1.3
		c0.1-0.1,0.1-0.3,0.1-0.5L1260.9,275.1L1260.9,275.1z"/>
	<path class="st45" d="M1272.7,277c0,0.8,0,1.5,0.1,2.1h-1.5l-0.1-1.3h0c-0.4,0.6-1.4,1.5-3,1.5c-1.4,0-3.1-0.7-3.1-3.4v-4.6h1.7
		v4.3c0,1.5,0.5,2.5,2,2.5c1.1,0,1.9-0.7,2.2-1.3c0.1-0.2,0.2-0.5,0.2-0.7v-4.8h1.6L1272.7,277L1272.7,277z"/>
	<path class="st45" d="M1275.4,273.8c0-0.9,0-1.7-0.1-2.4h1.4l0.1,1.5h0.1c0.4-1,1.4-1.7,2.5-1.7c0.2,0,0.3,0,0.5,0v1.3
		c-0.2,0-0.3,0-0.6,0c-1.2,0-2,0.8-2.2,1.8c0,0.2-0.1,0.4-0.1,0.7v4.2h-1.6V273.8z"/>
	<path class="st45" d="M1283.4,269.1c0,0.5-0.4,0.9-1,0.9c-0.6,0-1-0.4-1-0.9c0-0.5,0.4-0.9,1-0.9S1283.4,268.6,1283.4,269.1z
		 M1281.6,279.1v-7.8h1.6v7.8H1281.6z"/>
	<path class="st45" d="M1285.7,277.7c0.5,0.3,1.3,0.6,2.2,0.6c1.2,0,1.8-0.5,1.8-1.2c0-0.7-0.5-1-1.7-1.4c-1.6-0.5-2.4-1.3-2.4-2.2
		c0-1.3,1.2-2.3,3.1-2.3c0.9,0,1.7,0.2,2.2,0.5l-0.4,1c-0.3-0.2-1-0.5-1.8-0.5c-1,0-1.5,0.5-1.5,1.1c0,0.6,0.5,0.9,1.7,1.3
		c1.6,0.5,2.4,1.2,2.4,2.4c0,1.4-1.2,2.3-3.4,2.3c-1,0-1.9-0.2-2.5-0.5L1285.7,277.7z"/>
	<path class="st45" d="M819.7,290.7l1.8,4.4c0.3,0.7,0.5,1.4,0.7,2h0.1c0.2-0.6,0.5-1.3,0.8-2l1.8-4.4h1.7l-3.5,7.8h-1.6l-3.4-7.8
		H819.7z"/>
	<path class="st45" d="M829.9,288.5c0,0.5-0.4,0.9-1,0.9c-0.6,0-1-0.4-1-0.9c0-0.5,0.4-0.9,1-0.9C829.5,287.6,829.9,288,829.9,288.5
		z M828.1,298.5v-7.8h1.7v7.8H828.1z"/>
	<path class="st45" d="M833.1,290.7l1.8,4.4c0.3,0.7,0.5,1.4,0.7,2h0.1c0.2-0.6,0.5-1.3,0.8-2l1.8-4.4h1.7l-3.5,7.8h-1.6l-3.4-7.8
		H833.1z"/>
	<path class="st45" d="M842.2,294.8c0,1.9,1.5,2.7,3.1,2.7c1.2,0,1.9-0.2,2.5-0.4l0.3,1c-0.6,0.2-1.6,0.5-3,0.5
		c-2.8,0-4.5-1.6-4.5-3.9c0-2.4,1.6-4.2,4.2-4.2c3,0,3.7,2.2,3.7,3.7c0,0.3,0,0.5-0.1,0.7H842.2z M847,293.8c0-0.9-0.4-2.3-2.3-2.3
		c-1.7,0-2.4,1.3-2.5,2.3H847z"/>
	<path class="st45" d="M850.6,293.1c0-0.9,0-1.7-0.1-2.4h1.4l0.1,1.5h0.1c0.4-1,1.4-1.7,2.5-1.7c0.2,0,0.3,0,0.5,0v1.3
		c-0.2,0-0.3,0-0.6,0c-1.2,0-2,0.8-2.2,1.8c0,0.2-0.1,0.4-0.1,0.7v4.2h-1.6L850.6,293.1L850.6,293.1z"/>
	<path class="st45" d="M856.8,293.1c0-0.9,0-1.7-0.1-2.4h1.4l0.1,1.5h0.1c0.4-1,1.4-1.7,2.5-1.7c0.2,0,0.3,0,0.5,0v1.3
		c-0.2,0-0.3,0-0.6,0c-1.2,0-2,0.8-2.2,1.8c0,0.2-0.1,0.4-0.1,0.7v4.2h-1.6L856.8,293.1L856.8,293.1z"/>
	<path class="st45" d="M867.8,298.5l-0.1-1h-0.1c-0.5,0.6-1.5,1.2-2.8,1.2c-1.8,0-2.8-1.1-2.8-2.2c0-1.9,1.9-2.9,5.4-2.9v-0.2
		c0-0.6-0.2-1.8-2-1.8c-0.8,0-1.7,0.2-2.3,0.6l-0.4-0.9c0.7-0.4,1.8-0.7,3-0.7c2.8,0,3.4,1.6,3.4,3.2v2.9c0,0.7,0,1.3,0.2,1.9H867.8
		z M867.5,294.5c-1.8,0-3.8,0.2-3.8,1.8c0,0.9,0.7,1.4,1.5,1.4c1.2,0,1.9-0.6,2.2-1.3c0.1-0.1,0.1-0.3,0.1-0.5V294.5z"/>
	<path class="st45" d="M877.7,288.4v2.2h2.4v1.1h-2.4v4.2c0,1,0.3,1.5,1.2,1.5c0.4,0,0.8,0,1-0.1l0.1,1.1c-0.3,0.1-0.8,0.2-1.5,0.2
		c-0.8,0-1.4-0.2-1.8-0.6c-0.5-0.4-0.6-1.1-0.6-2v-4.3h-1.4v-1.1h1.4v-1.9L877.7,288.4z"/>
	<path class="st45" d="M890,294.5c0,2.9-2.3,4.1-4.5,4.1c-2.5,0-4.3-1.5-4.3-4c0-2.6,2-4.1,4.5-4.1C888.2,290.5,890,292.1,890,294.5
		z M882.8,294.6c0,1.7,1.1,3,2.8,3c1.6,0,2.8-1.3,2.8-3c0-1.3-0.8-3-2.7-3C883.7,291.6,882.8,293.1,882.8,294.6z"/>
	<path class="st45" d="M892,293.1c0-0.9,0-1.7-0.1-2.4h1.4l0.1,1.5h0.1c0.4-1,1.4-1.7,2.5-1.7c0.2,0,0.3,0,0.5,0v1.3
		c-0.2,0-0.3,0-0.6,0c-1.2,0-2,0.8-2.2,1.8c0,0.2-0.1,0.4-0.1,0.7v4.2H892V293.1z"/>
	<path class="st45" d="M900.6,288.4v2.2h2.3v1.1h-2.3v4.2c0,1,0.3,1.5,1.2,1.5c0.4,0,0.7,0,1-0.1l0.1,1.1c-0.3,0.1-0.8,0.2-1.5,0.2
		c-0.8,0-1.4-0.2-1.8-0.6c-0.5-0.4-0.6-1.1-0.6-2v-4.3h-1.4v-1.1h1.4v-1.9L900.6,288.4z"/>
	<path class="st45" d="M912.9,294.5c0,2.9-2.3,4.1-4.5,4.1c-2.4,0-4.3-1.5-4.3-4c0-2.6,2-4.1,4.5-4.1
		C911.1,290.5,912.9,292.1,912.9,294.5z M905.7,294.6c0,1.7,1.1,3,2.7,3c1.6,0,2.8-1.3,2.8-3c0-1.3-0.8-3-2.7-3
		C906.5,291.6,905.7,293.1,905.7,294.6z"/>
	<path class="st45" d="M914.9,293.1c0-0.9,0-1.7-0.1-2.4h1.4l0,1.5h0.1c0.4-1,1.4-1.7,2.5-1.7c0.2,0,0.3,0,0.5,0v1.3
		c-0.2,0-0.3,0-0.6,0c-1.2,0-2,0.8-2.2,1.8c0,0.2-0.1,0.4-0.1,0.7v4.2h-1.6L914.9,293.1L914.9,293.1z"/>
	<path class="st45" d="M930,298.5l-0.1-1h0c-0.5,0.6-1.5,1.2-2.8,1.2c-1.8,0-2.8-1.1-2.8-2.2c0-1.9,1.9-2.9,5.4-2.9v-0.2
		c0-0.6-0.2-1.8-2-1.8c-0.8,0-1.7,0.2-2.4,0.6l-0.4-0.9c0.8-0.4,1.8-0.7,3-0.7c2.8,0,3.4,1.6,3.4,3.2v2.9c0,0.7,0,1.3,0.2,1.9H930z
		 M929.8,294.5c-1.8,0-3.8,0.2-3.8,1.8c0,0.9,0.7,1.4,1.5,1.4c1.2,0,1.9-0.6,2.2-1.3c0-0.1,0.1-0.3,0.1-0.5V294.5z"/>
	<path class="st45" d="M940.4,298.2c-0.4,0.2-1.4,0.5-2.6,0.5c-2.7,0-4.5-1.6-4.5-4c0-2.4,1.9-4.1,4.8-4.1c1,0,1.8,0.2,2.3,0.4
		l-0.4,1.1c-0.4-0.2-1-0.4-1.9-0.4c-2.1,0-3.2,1.3-3.2,3c0,1.8,1.3,2.9,3.1,2.9c0.9,0,1.5-0.2,2-0.4L940.4,298.2z"/>
	<path class="st45" d="M948.7,298.2c-0.4,0.2-1.4,0.5-2.6,0.5c-2.7,0-4.5-1.6-4.5-4c0-2.4,1.9-4.1,4.8-4.1c1,0,1.8,0.2,2.3,0.4
		l-0.4,1.1c-0.4-0.2-1-0.4-1.9-0.4c-2.1,0-3.2,1.3-3.2,3c0,1.8,1.3,2.9,3.1,2.9c0.9,0,1.5-0.2,2-0.4L948.7,298.2z"/>
	<path class="st45" d="M958.2,296.4c0,0.8,0,1.5,0.1,2.1h-1.5l-0.1-1.3h0c-0.4,0.6-1.4,1.5-3,1.5c-1.4,0-3.1-0.7-3.1-3.4v-4.6h1.6
		v4.3c0,1.5,0.5,2.5,2,2.5c1.1,0,1.9-0.7,2.2-1.3c0.1-0.2,0.2-0.5,0.2-0.7v-4.8h1.6L958.2,296.4L958.2,296.4z"/>
	<path class="st45" d="M960.9,292.8c0-0.8,0-1.5-0.1-2.1h1.4l0.1,1.3h0.1c0.5-0.7,1.3-1.4,2.8-1.4c1.2,0,2.2,0.6,2.6,1.6h0
		c0.3-0.4,0.6-0.8,1-1c0.5-0.4,1.1-0.5,2-0.5c1.2,0,3,0.7,3,3.4v4.6h-1.6v-4.4c0-1.5-0.6-2.4-2-2.4c-0.9,0-1.7,0.6-1.9,1.3
		c-0.1,0.2-0.1,0.5-0.1,0.7v4.8h-1.6v-4.7c0-1.2-0.6-2.1-1.9-2.1c-1,0-1.8,0.7-2,1.4c-0.1,0.2-0.1,0.5-0.1,0.7v4.7h-1.6V292.8z"/>
	<path class="st45" d="M976.2,297c0.5,0.3,1.3,0.6,2.2,0.6c1.2,0,1.8-0.5,1.8-1.2c0-0.7-0.5-1-1.7-1.4c-1.6-0.5-2.4-1.3-2.4-2.2
		c0-1.3,1.2-2.3,3.1-2.3c0.9,0,1.7,0.2,2.2,0.5l-0.4,1c-0.3-0.2-1-0.5-1.8-0.5c-1,0-1.5,0.5-1.5,1.1c0,0.6,0.5,0.9,1.7,1.3
		c1.6,0.5,2.4,1.2,2.4,2.4c0,1.4-1.2,2.3-3.4,2.3c-1,0-1.9-0.2-2.5-0.5L976.2,297z"/>
	<path class="st45" d="M988.9,298.5l-0.1-1h0c-0.5,0.6-1.5,1.2-2.8,1.2c-1.8,0-2.8-1.1-2.8-2.2c0-1.9,1.9-2.9,5.4-2.9v-0.2
		c0-0.6-0.2-1.8-2.1-1.8c-0.8,0-1.7,0.2-2.3,0.6l-0.4-0.9c0.8-0.4,1.8-0.7,3-0.7c2.8,0,3.4,1.6,3.4,3.2v2.9c0,0.7,0,1.3,0.2,1.9
		H988.9z M988.6,294.5c-1.8,0-3.8,0.2-3.8,1.8c0,0.9,0.7,1.4,1.5,1.4c1.2,0,1.9-0.6,2.2-1.3c0.1-0.1,0.1-0.3,0.1-0.5V294.5z"/>
	<path class="st45" d="M992.8,292.8c0-0.8,0-1.5-0.1-2.1h1.5l0.1,1.3h0c0.5-0.7,1.5-1.5,3-1.5c1.2,0,3.2,0.6,3.2,3.3v4.7h-1.6V294
		c0-1.3-0.5-2.3-2.1-2.3c-1.1,0-1.9,0.7-2.2,1.5c-0.1,0.2-0.1,0.4-0.1,0.7v4.7h-1.7L992.8,292.8L992.8,292.8z"/>
	<path class="st45" d="M1002.2,300.5c0.4-1,0.9-2.7,1.1-3.9l1.8-0.2c-0.4,1.4-1.2,3.2-1.8,3.9L1002.2,300.5z"/>
	<path class="st45" d="M1018.6,296.4c0,0.8,0,1.5,0.1,2.1h-1.5l-0.1-1.3h0c-0.4,0.6-1.4,1.5-3,1.5c-1.4,0-3.1-0.7-3.1-3.4v-4.6h1.6
		v4.3c0,1.5,0.5,2.5,2,2.5c1.1,0,1.9-0.7,2.2-1.3c0.1-0.2,0.2-0.5,0.2-0.7v-4.8h1.7L1018.6,296.4L1018.6,296.4z"/>
	<path class="st45" d="M1021.3,287h1.6v11.5h-1.6V287z"/>
	<path class="st45" d="M1027.7,288.4v2.2h2.3v1.1h-2.3v4.2c0,1,0.3,1.5,1.2,1.5c0.4,0,0.8,0,0.9-0.1l0.1,1.1
		c-0.3,0.1-0.8,0.2-1.5,0.2c-0.8,0-1.4-0.2-1.8-0.6c-0.5-0.4-0.6-1.1-0.6-2v-4.3h-1.4v-1.1h1.4v-1.9L1027.7,288.4z"/>
	<path class="st45" d="M1031.9,293.1c0-0.9,0-1.7-0.1-2.4h1.4l0.1,1.5h0.1c0.4-1,1.4-1.7,2.5-1.7c0.2,0,0.3,0,0.5,0v1.3
		c-0.2,0-0.3,0-0.6,0c-1.2,0-2,0.8-2.2,1.8c0,0.2-0.1,0.4-0.1,0.7v4.2h-1.6L1031.9,293.1L1031.9,293.1z"/>
	<path class="st45" d="M1039.9,288.5c0,0.5-0.4,0.9-1,0.9c-0.6,0-1-0.4-1-0.9c0-0.5,0.4-0.9,1-0.9
		C1039.5,287.6,1039.9,288,1039.9,288.5z M1038.1,298.5v-7.8h1.6v7.8H1038.1z"/>
	<path class="st45" d="M1043.4,294.8c0,1.9,1.4,2.7,3.1,2.7c1.2,0,1.9-0.2,2.5-0.4l0.3,1c-0.6,0.2-1.6,0.5-3,0.5
		c-2.8,0-4.4-1.6-4.4-3.9c0-2.4,1.6-4.2,4.2-4.2c2.9,0,3.7,2.2,3.7,3.7c0,0.3,0,0.5-0.1,0.7H1043.4z M1048.2,293.8
		c0-0.9-0.4-2.3-2.3-2.3c-1.7,0-2.4,1.3-2.5,2.3H1048.2z"/>
	<path class="st45" d="M1051.6,297c0.5,0.3,1.3,0.6,2.2,0.6c1.2,0,1.8-0.5,1.8-1.2c0-0.7-0.5-1-1.7-1.4c-1.6-0.5-2.4-1.3-2.4-2.2
		c0-1.3,1.2-2.3,3.1-2.3c0.9,0,1.7,0.2,2.2,0.5l-0.4,1c-0.3-0.2-1-0.5-1.8-0.5c-1,0-1.5,0.5-1.5,1.1c0,0.6,0.5,0.9,1.7,1.3
		c1.6,0.5,2.4,1.2,2.4,2.4c0,1.4-1.2,2.3-3.4,2.3c-1,0-1.9-0.2-2.5-0.5L1051.6,297z"/>
	<path class="st45" d="M1063.2,287h1.6v11.5h-1.6V287z"/>
	<path class="st45" d="M1068.5,294.8c0,1.9,1.4,2.7,3.1,2.7c1.2,0,1.9-0.2,2.5-0.4l0.3,1c-0.6,0.2-1.6,0.5-3,0.5
		c-2.8,0-4.4-1.6-4.4-3.9c0-2.4,1.6-4.2,4.2-4.2c2.9,0,3.7,2.2,3.7,3.7c0,0.3,0,0.5-0.1,0.7H1068.5z M1073.3,293.8
		c0-0.9-0.4-2.3-2.3-2.3c-1.7,0-2.4,1.3-2.5,2.3H1073.3z"/>
	<path class="st45" d="M1083.4,298.2c-0.4,0.2-1.4,0.5-2.6,0.5c-2.7,0-4.5-1.6-4.5-4c0-2.4,1.9-4.1,4.8-4.1c1,0,1.8,0.2,2.3,0.4
		l-0.4,1.1c-0.4-0.2-1-0.4-1.9-0.4c-2.1,0-3.2,1.3-3.2,3c0,1.8,1.3,2.9,3.1,2.9c0.9,0,1.6-0.2,2-0.4L1083.4,298.2z"/>
	<path class="st45" d="M1087.5,288.4v2.2h2.3v1.1h-2.3v4.2c0,1,0.3,1.5,1.2,1.5c0.4,0,0.8,0,0.9-0.1l0.1,1.1
		c-0.3,0.1-0.8,0.2-1.5,0.2c-0.8,0-1.4-0.2-1.8-0.6c-0.5-0.4-0.6-1.1-0.6-2v-4.3h-1.4v-1.1h1.4v-1.9L1087.5,288.4z"/>
	<path class="st45" d="M1099.3,296.4c0,0.8,0,1.5,0.1,2.1h-1.5l-0.1-1.3h0c-0.4,0.6-1.4,1.5-3,1.5c-1.4,0-3.1-0.7-3.1-3.4v-4.6h1.6
		v4.3c0,1.5,0.5,2.5,2,2.5c1.1,0,1.9-0.7,2.2-1.3c0.1-0.2,0.2-0.5,0.2-0.7v-4.8h1.7L1099.3,296.4L1099.3,296.4z"/>
	<path class="st45" d="M1101.8,297c0.5,0.3,1.3,0.6,2.2,0.6c1.2,0,1.8-0.5,1.8-1.2c0-0.7-0.5-1-1.7-1.4c-1.6-0.5-2.4-1.3-2.4-2.2
		c0-1.3,1.2-2.3,3.1-2.3c0.9,0,1.7,0.2,2.2,0.5l-0.4,1c-0.3-0.2-1-0.5-1.8-0.5c-1,0-1.5,0.5-1.5,1.1c0,0.6,0.5,0.9,1.7,1.3
		c1.6,0.5,2.4,1.2,2.4,2.4c0,1.4-1.2,2.3-3.4,2.3c-1,0-1.9-0.2-2.5-0.5L1101.8,297z"/>
	<path class="st45" d="M1113.3,292.8c0-0.8,0-1.5-0.1-2.1h1.5l0.1,1.3h0c0.4-0.7,1.5-1.5,3-1.5c1.2,0,3.2,0.6,3.2,3.3v4.7h-1.6V294
		c0-1.3-0.5-2.3-2.1-2.3c-1.1,0-1.9,0.7-2.2,1.5c-0.1,0.2-0.1,0.4-0.1,0.7v4.7h-1.7L1113.3,292.8L1113.3,292.8z"/>
	<path class="st45" d="M1124.6,294.8c0,1.9,1.5,2.7,3.1,2.7c1.2,0,1.9-0.2,2.5-0.4l0.3,1c-0.6,0.2-1.6,0.5-3,0.5
		c-2.8,0-4.4-1.6-4.4-3.9c0-2.4,1.6-4.2,4.2-4.2c2.9,0,3.7,2.2,3.7,3.7c0,0.3,0,0.5-0.1,0.7H1124.6z M1129.4,293.8
		c0-0.9-0.4-2.3-2.3-2.3c-1.7,0-2.4,1.3-2.5,2.3H1129.4z"/>
	<path class="st45" d="M1139.5,298.2c-0.4,0.2-1.4,0.5-2.6,0.5c-2.7,0-4.5-1.6-4.5-4c0-2.4,1.9-4.1,4.9-4.1c1,0,1.8,0.2,2.3,0.4
		l-0.4,1.1c-0.4-0.2-1-0.4-1.9-0.4c-2.1,0-3.2,1.3-3.2,3c0,1.8,1.3,2.9,3.1,2.9c0.9,0,1.6-0.2,2-0.4L1139.5,298.2z"/>
	<path class="st45" d="M1151.8,298.2c-0.4,0.2-1.4,0.5-2.6,0.5c-2.7,0-4.5-1.6-4.5-4c0-2.4,1.9-4.1,4.9-4.1c1,0,1.8,0.2,2.3,0.4
		l-0.4,1.1c-0.4-0.2-1-0.4-1.9-0.4c-2.1,0-3.2,1.3-3.2,3c0,1.8,1.3,2.9,3.1,2.9c0.9,0,1.6-0.2,2-0.4L1151.8,298.2z"/>
	<path class="st45" d="M1161.8,294.5c0,2.9-2.3,4.1-4.5,4.1c-2.4,0-4.3-1.5-4.3-4c0-2.6,2-4.1,4.5-4.1
		C1160.1,290.5,1161.8,292.1,1161.8,294.5z M1154.7,294.6c0,1.7,1.1,3,2.8,3c1.6,0,2.8-1.3,2.8-3c0-1.3-0.8-3-2.7-3
		C1155.5,291.6,1154.7,293.1,1154.7,294.6z"/>
	<path class="st45" d="M1163.9,292.8c0-0.8,0-1.5-0.1-2.1h1.5l0.1,1.3h0c0.4-0.7,1.5-1.5,3-1.5c1.2,0,3.2,0.6,3.2,3.3v4.7h-1.7V294
		c0-1.3-0.5-2.3-2.1-2.3c-1.1,0-1.9,0.7-2.2,1.5c-0.1,0.2-0.1,0.4-0.1,0.7v4.7h-1.7L1163.9,292.8L1163.9,292.8z"/>
	<path class="st45" d="M1174,297c0.5,0.3,1.3,0.6,2.2,0.6c1.2,0,1.8-0.5,1.8-1.2c0-0.7-0.5-1-1.7-1.4c-1.6-0.5-2.4-1.3-2.4-2.2
		c0-1.3,1.2-2.3,3.1-2.3c0.9,0,1.7,0.2,2.2,0.5l-0.4,1c-0.3-0.2-1-0.5-1.8-0.5c-1,0-1.5,0.5-1.5,1.1c0,0.6,0.5,0.9,1.7,1.3
		c1.6,0.5,2.4,1.2,2.4,2.4c0,1.4-1.2,2.3-3.4,2.3c-1,0-1.9-0.2-2.5-0.5L1174,297z"/>
	<path class="st45" d="M1182.6,294.8c0,1.9,1.5,2.7,3.1,2.7c1.2,0,1.9-0.2,2.5-0.4l0.3,1c-0.6,0.2-1.6,0.5-3,0.5
		c-2.8,0-4.4-1.6-4.4-3.9c0-2.4,1.6-4.2,4.2-4.2c2.9,0,3.7,2.2,3.7,3.7c0,0.3,0,0.5-0.1,0.7H1182.6z M1187.4,293.8
		c0-0.9-0.4-2.3-2.3-2.3c-1.7,0-2.4,1.3-2.5,2.3H1187.4z"/>
	<path class="st45" d="M1197.4,298.2c-0.4,0.2-1.4,0.5-2.6,0.5c-2.7,0-4.5-1.6-4.5-4c0-2.4,1.9-4.1,4.9-4.1c1,0,1.8,0.2,2.3,0.4
		l-0.4,1.1c-0.4-0.2-1-0.4-1.9-0.4c-2.1,0-3.2,1.3-3.2,3c0,1.8,1.3,2.9,3.1,2.9c0.9,0,1.6-0.2,2-0.4L1197.4,298.2z"/>
	<path class="st45" d="M1201.6,288.4v2.2h2.3v1.1h-2.3v4.2c0,1,0.3,1.5,1.2,1.5c0.4,0,0.7,0,0.9-0.1l0.1,1.1
		c-0.3,0.1-0.8,0.2-1.5,0.2c-0.8,0-1.4-0.2-1.8-0.6c-0.5-0.4-0.6-1.1-0.6-2v-4.3h-1.4v-1.1h1.4v-1.9L1201.6,288.4z"/>
	<path class="st45" d="M1206.6,294.8c0,1.9,1.5,2.7,3.1,2.7c1.2,0,1.9-0.2,2.5-0.4l0.3,1c-0.6,0.2-1.6,0.5-3,0.5
		c-2.8,0-4.4-1.6-4.4-3.9c0-2.4,1.6-4.2,4.2-4.2c2.9,0,3.7,2.2,3.7,3.7c0,0.3,0,0.5-0.1,0.7H1206.6z M1211.4,293.8
		c0-0.9-0.4-2.3-2.3-2.3c-1.7,0-2.4,1.3-2.5,2.3H1211.4z"/>
	<path class="st45" d="M1217,288.4v2.2h2.4v1.1h-2.4v4.2c0,1,0.3,1.5,1.2,1.5c0.4,0,0.8,0,0.9-0.1l0.1,1.1c-0.3,0.1-0.8,0.2-1.5,0.2
		c-0.8,0-1.4-0.2-1.8-0.6c-0.5-0.4-0.6-1.1-0.6-2v-4.3h-1.4v-1.1h1.4v-1.9L1217,288.4z"/>
	<path class="st45" d="M1228.8,296.4c0,0.8,0,1.5,0.1,2.1h-1.4l-0.1-1.3h0c-0.4,0.6-1.4,1.5-3,1.5c-1.4,0-3.1-0.7-3.1-3.4v-4.6h1.6
		v4.3c0,1.5,0.5,2.5,2,2.5c1.1,0,1.9-0.7,2.2-1.3c0.1-0.2,0.2-0.5,0.2-0.7v-4.8h1.6L1228.8,296.4L1228.8,296.4z"/>
	<path class="st45" d="M1231.5,293.1c0-0.9,0-1.7-0.1-2.4h1.4l0.1,1.5h0.1c0.4-1,1.4-1.7,2.5-1.7c0.2,0,0.3,0,0.5,0v1.3
		c-0.2,0-0.3,0-0.6,0c-1.2,0-2,0.8-2.2,1.8c0,0.2-0.1,0.4-0.1,0.7v4.2h-1.6V293.1z"/>
	<path class="st45" d="M1241.7,298.5v-6.7h-1.3v-1.1h1.3v-0.4c0-1.1,0.3-2.1,1-2.7c0.6-0.5,1.4-0.7,2.2-0.7c0.6,0,1.1,0.1,1.4,0.2
		l-0.2,1.1c-0.2-0.1-0.6-0.2-1-0.2c-1.4,0-1.8,1.1-1.8,2.3v0.4h2.2v1.1h-2.2v6.7L1241.7,298.5L1241.7,298.5z"/>
	<path class="st45" d="M1247.7,294.8c0,1.9,1.5,2.7,3.1,2.7c1.2,0,1.9-0.2,2.5-0.4l0.3,1c-0.6,0.2-1.6,0.5-3,0.5
		c-2.8,0-4.4-1.6-4.4-3.9c0-2.4,1.6-4.2,4.2-4.2c2.9,0,3.7,2.2,3.7,3.7c0,0.3,0,0.5-0.1,0.7H1247.7z M1252.5,293.8
		c0-0.9-0.4-2.3-2.3-2.3c-1.7,0-2.4,1.3-2.5,2.3H1252.5z"/>
	<path class="st45" d="M1256.1,287h1.6v11.5h-1.6V287z"/>
	<path class="st45" d="M1262.4,288.5c0,0.5-0.4,0.9-1,0.9c-0.6,0-1-0.4-1-0.9c0-0.5,0.4-0.9,1-0.9
		C1262,287.6,1262.4,288,1262.4,288.5z M1260.5,298.5v-7.8h1.7v7.8H1260.5z"/>
	<path class="st45" d="M1264.7,297c0.5,0.3,1.3,0.6,2.2,0.6c1.2,0,1.8-0.5,1.8-1.2c0-0.7-0.5-1-1.7-1.4c-1.6-0.5-2.4-1.3-2.4-2.2
		c0-1.3,1.2-2.3,3.1-2.3c0.9,0,1.7,0.2,2.2,0.5l-0.4,1c-0.4-0.2-1-0.5-1.8-0.5c-1,0-1.5,0.5-1.5,1.1c0,0.6,0.5,0.9,1.7,1.3
		c1.6,0.5,2.4,1.2,2.4,2.4c0,1.4-1.2,2.3-3.4,2.3c-1,0-1.9-0.2-2.5-0.5L1264.7,297z"/>
	<path class="st45" d="M1277.9,287.6v6.4c0,2.4,1.2,3.5,2.9,3.5c1.9,0,3.1-1.1,3.1-3.5v-6.4h1.6v6.3c0,3.3-2,4.7-4.8,4.7
		c-2.6,0-4.5-1.3-4.5-4.6v-6.4L1277.9,287.6L1277.9,287.6z"/>
	<path class="st45" d="M1290.4,288.4v2.2h2.4v1.1h-2.4v4.2c0,1,0.3,1.5,1.2,1.5c0.4,0,0.7,0,0.9-0.1l0.1,1.1
		c-0.3,0.1-0.8,0.2-1.5,0.2c-0.8,0-1.4-0.2-1.8-0.6c-0.5-0.4-0.6-1.1-0.6-2v-4.3h-1.4v-1.1h1.4v-1.9L1290.4,288.4z"/>
	<path class="st45" d="M1299.6,298.5l-0.1-1h-0.1c-0.5,0.6-1.5,1.2-2.8,1.2c-1.8,0-2.8-1.1-2.8-2.2c0-1.9,1.9-2.9,5.4-2.9v-0.2
		c0-0.6-0.2-1.8-2.1-1.8c-0.8,0-1.7,0.2-2.4,0.6l-0.4-0.9c0.8-0.4,1.8-0.7,3-0.7c2.8,0,3.4,1.6,3.4,3.2v2.9c0,0.7,0,1.3,0.2,1.9
		H1299.6z M1299.3,294.5c-1.8,0-3.8,0.2-3.8,1.8c0,0.9,0.7,1.4,1.6,1.4c1.2,0,1.9-0.6,2.2-1.3c0.1-0.1,0.1-0.3,0.1-0.5L1299.3,294.5
		L1299.3,294.5z"/>
	<path class="st45" d="M1310,298.2c-0.4,0.2-1.4,0.5-2.6,0.5c-2.7,0-4.5-1.6-4.5-4c0-2.4,1.9-4.1,4.8-4.1c1,0,1.8,0.2,2.3,0.4
		l-0.4,1.1c-0.4-0.2-1-0.4-1.9-0.4c-2.1,0-3.2,1.3-3.2,3c0,1.8,1.3,2.9,3.1,2.9c0.9,0,1.6-0.2,2-0.4L1310,298.2z"/>
	<path class="st45" d="M826.7,315.7c0,0.8,0,1.5,0.1,2.1h-1.5l-0.1-1.3h0c-0.4,0.6-1.4,1.5-3,1.5c-1.4,0-3.1-0.7-3.1-3.4V310h1.6
		v4.3c0,1.5,0.5,2.5,2,2.5c1.1,0,1.9-0.7,2.2-1.3c0.1-0.2,0.2-0.5,0.2-0.7V310h1.6L826.7,315.7L826.7,315.7z"/>
	<path class="st45" d="M829.4,312.5c0-0.9,0-1.7-0.1-2.4h1.4l0,1.5h0.1c0.4-1,1.4-1.7,2.5-1.7c0.2,0,0.3,0,0.5,0v1.3
		c-0.2,0-0.3,0-0.6,0c-1.2,0-2,0.8-2.2,1.8c0,0.2-0.1,0.4-0.1,0.7v4.2h-1.6L829.4,312.5L829.4,312.5z"/>
	<path class="st45" d="M835.6,312.1c0-0.8,0-1.5-0.1-2.1h1.5l0.1,1.3h0c0.5-0.7,1.5-1.5,3-1.5c1.2,0,3.2,0.6,3.2,3.3v4.7h-1.6v-4.5
		c0-1.3-0.5-2.3-2.1-2.3c-1.1,0-1.9,0.7-2.2,1.5c-0.1,0.2-0.1,0.4-0.1,0.7v4.7h-1.7L835.6,312.1L835.6,312.1z"/>
	<path class="st45" d="M850.9,317.8l-0.1-1h-0.1c-0.5,0.6-1.5,1.2-2.8,1.2c-1.8,0-2.8-1.1-2.8-2.2c0-1.9,1.9-2.9,5.4-2.9v-0.2
		c0-0.6-0.2-1.8-2-1.8c-0.8,0-1.7,0.2-2.3,0.6l-0.4-0.9c0.8-0.4,1.8-0.7,3-0.7c2.8,0,3.4,1.6,3.4,3.2v2.9c0,0.7,0,1.3,0.2,1.9
		L850.9,317.8L850.9,317.8z M850.7,313.9c-1.8,0-3.8,0.2-3.8,1.8c0,0.9,0.7,1.4,1.5,1.4c1.2,0,1.9-0.6,2.2-1.3
		c0.1-0.1,0.1-0.3,0.1-0.5L850.7,313.9L850.7,313.9z"/>
	<path class="st45" d="M858.9,306.4h1.6v4.9h0c0.3-0.4,0.7-0.8,1.2-1c0.5-0.2,1.1-0.4,1.7-0.4c1.2,0,3.2,0.6,3.2,3.3v4.6h-1.6v-4.5
		c0-1.3-0.5-2.3-2.1-2.3c-1.1,0-1.9,0.6-2.2,1.4c-0.1,0.2-0.1,0.4-0.1,0.7v4.7h-1.6L858.9,306.4L858.9,306.4z"/>
	<path class="st45" d="M870.2,314.2c0,1.9,1.5,2.7,3.1,2.7c1.2,0,1.9-0.2,2.5-0.4l0.3,1c-0.6,0.2-1.6,0.5-3,0.5
		c-2.8,0-4.5-1.6-4.5-3.9c0-2.4,1.6-4.2,4.2-4.2c3,0,3.7,2.2,3.7,3.7c0,0.3,0,0.5-0.1,0.7H870.2z M875,313.2c0-0.9-0.4-2.3-2.3-2.3
		c-1.7,0-2.4,1.3-2.5,2.3H875z"/>
	<path class="st45" d="M878.6,312.1c0-0.8,0-1.5-0.1-2.1h1.5l0.1,1.3h0c0.5-0.7,1.5-1.5,3-1.5c1.2,0,3.2,0.6,3.2,3.3v4.7h-1.6v-4.5
		c0-1.3-0.5-2.3-2.1-2.3c-1.1,0-1.9,0.7-2.2,1.5c-0.1,0.2-0.1,0.4-0.1,0.7v4.7h-1.7L878.6,312.1L878.6,312.1z"/>
	<path class="st45" d="M896.8,306.4v9.4c0,0.7,0,1.5,0.1,2h-1.5l-0.1-1.4h0c-0.5,0.9-1.6,1.5-3.1,1.5c-2.2,0-3.9-1.6-3.9-4
		c0-2.6,1.8-4.2,4-4.2c1.4,0,2.3,0.6,2.7,1.2h0v-4.7L896.8,306.4L896.8,306.4z M895.1,313.2c0-0.2,0-0.4-0.1-0.6
		c-0.2-0.9-1.1-1.6-2.4-1.6c-1.7,0-2.7,1.3-2.7,3c0,1.6,0.9,2.9,2.7,2.9c1.1,0,2.1-0.6,2.4-1.7c0-0.2,0.1-0.4,0.1-0.6L895.1,313.2
		L895.1,313.2z"/>
	<path class="st45" d="M899.5,312.5c0-0.9,0-1.7-0.1-2.4h1.4l0.1,1.5h0.1c0.4-1,1.4-1.7,2.5-1.7c0.2,0,0.3,0,0.5,0v1.3
		c-0.2,0-0.3,0-0.6,0c-1.2,0-2,0.8-2.2,1.8c0,0.2-0.1,0.4-0.1,0.7v4.2h-1.6L899.5,312.5L899.5,312.5z"/>
	<path class="st45" d="M906.3,314.2c0,1.9,1.5,2.7,3.1,2.7c1.2,0,1.9-0.2,2.5-0.4l0.3,1c-0.6,0.2-1.6,0.5-3,0.5
		c-2.8,0-4.4-1.6-4.4-3.9c0-2.4,1.6-4.2,4.2-4.2c3,0,3.7,2.2,3.7,3.7c0,0.3,0,0.5,0,0.7H906.3z M911.1,313.2c0-0.9-0.4-2.3-2.3-2.3
		c-1.7,0-2.4,1.3-2.5,2.3H911.1z"/>
	<path class="st45" d="M914.8,312.5c0-0.9,0-1.7-0.1-2.4h1.4l0.1,1.5h0.1c0.4-1,1.4-1.7,2.5-1.7c0.2,0,0.3,0,0.5,0v1.3
		c-0.2,0-0.3,0-0.6,0c-1.2,0-2,0.8-2.2,1.8c0,0.2-0.1,0.4-0.1,0.7v4.2h-1.6L914.8,312.5L914.8,312.5z"/>
	<path class="st45" d="M922.8,307.8c0,0.5-0.4,0.9-1,0.9c-0.6,0-1-0.4-1-0.9c0-0.5,0.4-0.9,1-0.9C922.4,307,922.8,307.3,922.8,307.8
		z M920.9,317.8V310h1.7v7.8H920.9z"/>
	<path class="st45" d="M927.3,307.8v2.2h2.3v1.1h-2.3v4.2c0,1,0.3,1.5,1.2,1.5c0.4,0,0.8,0,1-0.1l0.1,1.1c-0.3,0.1-0.8,0.2-1.5,0.2
		c-0.8,0-1.4-0.2-1.8-0.6c-0.5-0.4-0.6-1.1-0.6-2v-4.3h-1.4V310h1.4v-1.9L927.3,307.8z"/>
	<path class="st45" d="M943.2,306.4v9.4c0,0.7,0,1.5,0.1,2h-1.5l-0.1-1.4h0c-0.5,0.9-1.6,1.5-3.1,1.5c-2.2,0-3.9-1.6-3.9-4
		c0-2.6,1.8-4.2,4-4.2c1.4,0,2.3,0.6,2.7,1.2h0v-4.7L943.2,306.4L943.2,306.4z M941.6,313.2c0-0.2,0-0.4-0.1-0.6
		c-0.2-0.9-1.1-1.6-2.4-1.6c-1.7,0-2.7,1.3-2.7,3c0,1.6,0.9,2.9,2.7,2.9c1.1,0,2.1-0.6,2.4-1.7c0.1-0.2,0.1-0.4,0.1-0.6L941.6,313.2
		L941.6,313.2z"/>
	<path class="st45" d="M947.8,307.8c0,0.5-0.4,0.9-1,0.9c-0.6,0-1-0.4-1-0.9c0-0.5,0.4-0.9,1-0.9C947.4,307,947.8,307.3,947.8,307.8
		z M946,317.8V310h1.7v7.8H946z"/>
	<path class="st45" d="M958.1,310c0,0.6-0.1,1.2-0.1,2.1v4.5c0,1.8-0.4,2.9-1.3,3.6c-0.9,0.7-2.2,0.9-3.3,0.9c-1.1,0-2.3-0.2-3-0.6
		l0.4-1.1c0.6,0.3,1.5,0.6,2.7,0.6c1.7,0,2.9-0.8,2.9-2.7v-0.9h0c-0.5,0.7-1.5,1.3-2.9,1.3c-2.2,0-3.8-1.6-3.8-3.8
		c0-2.6,2-4.1,4.1-4.1c1.6,0,2.4,0.7,2.8,1.4h0l0.1-1.2L958.1,310L958.1,310z M956.4,313.1c0-0.2,0-0.5-0.1-0.6
		c-0.3-0.8-1.1-1.5-2.3-1.5c-1.6,0-2.7,1.1-2.7,3c0,1.5,0.9,2.8,2.7,2.8c1,0,1.9-0.5,2.3-1.5c0.1-0.2,0.1-0.5,0.1-0.8L956.4,313.1
		L956.4,313.1z"/>
	<path class="st45" d="M960.7,312.1c0-0.8,0-1.5-0.1-2.1h1.5l0.1,1.3h0c0.5-0.7,1.5-1.5,3-1.5c1.2,0,3.2,0.6,3.2,3.3v4.7h-1.6v-4.5
		c0-1.3-0.5-2.3-2.1-2.3c-1.1,0-1.9,0.7-2.2,1.5c-0.1,0.2-0.1,0.4-0.1,0.7v4.7h-1.7L960.7,312.1L960.7,312.1z"/>
	<path class="st45" d="M972.9,307.8c0,0.5-0.4,0.9-1,0.9c-0.6,0-1-0.4-1-0.9c0-0.5,0.4-0.9,1-0.9C972.5,307,972.9,307.3,972.9,307.8
		z M971,317.8V310h1.6v7.8H971z"/>
	<path class="st45" d="M975.2,316.4c0.5,0.3,1.3,0.6,2.2,0.6c1.2,0,1.8-0.5,1.8-1.2c0-0.7-0.5-1-1.7-1.4c-1.6-0.5-2.4-1.3-2.4-2.2
		c0-1.3,1.2-2.3,3.1-2.3c0.9,0,1.7,0.2,2.2,0.5l-0.4,1c-0.3-0.2-1-0.5-1.8-0.5c-1,0-1.5,0.5-1.5,1.1c0,0.6,0.5,0.9,1.7,1.3
		c1.6,0.5,2.4,1.2,2.4,2.4c0,1.4-1.2,2.3-3.4,2.3c-1,0-1.9-0.2-2.5-0.5L975.2,316.4z"/>
	<path class="st45" d="M982.6,316.4c0.5,0.3,1.3,0.6,2.2,0.6c1.2,0,1.8-0.5,1.8-1.2c0-0.7-0.5-1-1.7-1.4c-1.6-0.5-2.4-1.3-2.4-2.2
		c0-1.3,1.2-2.3,3.1-2.3c0.9,0,1.7,0.2,2.2,0.5l-0.4,1c-0.4-0.2-1-0.5-1.8-0.5c-1,0-1.5,0.5-1.5,1.1c0,0.6,0.5,0.9,1.7,1.3
		c1.6,0.5,2.4,1.2,2.4,2.4c0,1.4-1.2,2.3-3.4,2.3c-1,0-1.9-0.2-2.5-0.5L982.6,316.4z"/>
	<path class="st45" d="M992,307.8c0,0.5-0.4,0.9-1,0.9c-0.6,0-1-0.4-1-0.9c0-0.5,0.4-0.9,1-0.9C991.6,307,992,307.3,992,307.8z
		 M990.2,317.8V310h1.6v7.8H990.2z"/>
	<path class="st45" d="M994.6,312.1c0-0.8,0-1.5-0.1-2.1h1.4l0.1,1.3h0.1c0.5-0.7,1.3-1.4,2.8-1.4c1.2,0,2.2,0.6,2.6,1.6h0
		c0.3-0.4,0.6-0.8,1-1c0.5-0.4,1.1-0.5,2-0.5c1.2,0,3,0.7,3,3.4v4.6h-1.6v-4.4c0-1.5-0.6-2.4-2-2.4c-0.9,0-1.7,0.6-1.9,1.3
		c-0.1,0.2-0.1,0.5-0.1,0.7v4.8h-1.6v-4.7c0-1.2-0.6-2.1-1.9-2.1c-1,0-1.8,0.7-2,1.4c-0.1,0.2-0.1,0.5-0.1,0.7v4.7h-1.6L994.6,312.1
		L994.6,312.1z"/>
	<path class="st45" d="M1015.9,307.8c0,0.5-0.4,0.9-1,0.9c-0.6,0-1-0.4-1-0.9c0-0.5,0.4-0.9,1-0.9
		C1015.5,307,1015.9,307.3,1015.9,307.8z M1014.1,317.8V310h1.6v7.8H1014.1z"/>
	<path class="st45" d="M1018.5,312.6c0-1,0-1.8-0.1-2.5h1.5l0.1,1.3h0c0.7-1,1.7-1.5,3.2-1.5c2.2,0,3.8,1.6,3.8,4
		c0,2.8-2,4.2-4.1,4.2c-1.2,0-2.2-0.5-2.8-1.2h0v4.2h-1.6V312.6z M1020.1,314.7c0,0.2,0,0.4,0.1,0.6c0.3,1,1.3,1.7,2.5,1.7
		c1.7,0,2.8-1.2,2.8-3c0-1.6-0.9-2.9-2.7-2.9c-1.1,0-2.2,0.7-2.5,1.8c-0.1,0.2-0.1,0.4-0.1,0.6L1020.1,314.7L1020.1,314.7z"/>
	<path class="st45" d="M1028.8,316.4c0.5,0.3,1.3,0.6,2.2,0.6c1.2,0,1.8-0.5,1.8-1.2c0-0.7-0.5-1-1.7-1.4c-1.6-0.5-2.4-1.3-2.4-2.2
		c0-1.3,1.2-2.3,3.1-2.3c0.9,0,1.7,0.2,2.2,0.5l-0.4,1c-0.3-0.2-1-0.5-1.8-0.5c-1,0-1.5,0.5-1.5,1.1c0,0.6,0.5,0.9,1.7,1.3
		c1.6,0.5,2.4,1.2,2.4,2.4c0,1.4-1.2,2.3-3.4,2.3c-1,0-1.9-0.2-2.5-0.5L1028.8,316.4z"/>
	<path class="st45" d="M1044,315.7c0,0.8,0,1.5,0.1,2.1h-1.5l-0.1-1.3h0c-0.4,0.6-1.4,1.5-3,1.5c-1.4,0-3.1-0.7-3.1-3.4V310h1.6v4.3
		c0,1.5,0.5,2.5,2,2.5c1.1,0,1.9-0.7,2.2-1.3c0.1-0.2,0.2-0.5,0.2-0.7V310h1.6L1044,315.7L1044,315.7z"/>
	<path class="st45" d="M1046.8,312.1c0-0.8,0-1.5-0.1-2.1h1.4l0.1,1.3h0.1c0.5-0.7,1.3-1.4,2.8-1.4c1.2,0,2.2,0.6,2.6,1.6h0
		c0.3-0.4,0.6-0.8,1-1c0.5-0.4,1.1-0.5,2-0.5c1.2,0,3,0.7,3,3.4v4.6h-1.6v-4.4c0-1.5-0.6-2.4-2-2.4c-0.9,0-1.7,0.6-1.9,1.3
		c-0.1,0.2-0.1,0.5-0.1,0.7v4.8h-1.6v-4.7c0-1.2-0.6-2.1-1.9-2.1c-1,0-1.8,0.7-2,1.4c-0.1,0.2-0.1,0.5-0.1,0.7v4.7h-1.6
		L1046.8,312.1L1046.8,312.1z"/>
	<path class="st45" d="M1074.1,310c0,0.6-0.1,1.2-0.1,2.1v4.5c0,1.8-0.4,2.9-1.3,3.6c-0.9,0.7-2.2,0.9-3.3,0.9c-1.1,0-2.3-0.2-3-0.6
		l0.4-1.1c0.6,0.3,1.5,0.6,2.7,0.6c1.7,0,2.9-0.8,2.9-2.7v-0.9h0c-0.5,0.7-1.5,1.3-2.9,1.3c-2.2,0-3.8-1.6-3.8-3.8
		c0-2.6,2-4.1,4.1-4.1c1.6,0,2.4,0.7,2.8,1.4h0l0.1-1.2L1074.1,310L1074.1,310z M1072.4,313.1c0-0.2,0-0.5-0.1-0.6
		c-0.3-0.8-1.1-1.5-2.3-1.5c-1.6,0-2.7,1.1-2.7,3c0,1.5,0.9,2.8,2.7,2.8c1,0,1.9-0.5,2.3-1.5c0.1-0.2,0.1-0.5,0.1-0.8L1072.4,313.1
		L1072.4,313.1z"/>
	<path class="st45" d="M1076.6,312.5c0-0.9,0-1.7-0.1-2.4h1.4l0.1,1.5h0.1c0.4-1,1.4-1.7,2.5-1.7c0.2,0,0.3,0,0.5,0v1.3
		c-0.2,0-0.3,0-0.6,0c-1.2,0-2,0.8-2.2,1.8c0,0.2-0.1,0.4-0.1,0.7v4.2h-1.6L1076.6,312.5L1076.6,312.5z"/>
	<path class="st45" d="M1087.6,317.8l-0.1-1h-0.1c-0.5,0.6-1.5,1.2-2.8,1.2c-1.8,0-2.8-1.1-2.8-2.2c0-1.9,1.9-2.9,5.4-2.9v-0.2
		c0-0.6-0.2-1.8-2.1-1.8c-0.8,0-1.7,0.2-2.4,0.6l-0.4-0.9c0.8-0.4,1.8-0.7,3-0.7c2.8,0,3.4,1.6,3.4,3.2v2.9c0,0.7,0,1.3,0.2,1.9
		L1087.6,317.8L1087.6,317.8z M1087.4,313.9c-1.8,0-3.8,0.2-3.8,1.8c0,0.9,0.7,1.4,1.6,1.4c1.2,0,1.9-0.6,2.2-1.3
		c0.1-0.1,0.1-0.3,0.1-0.5V313.9z"/>
	<path class="st45" d="M1092.1,310l1.8,4.4c0.3,0.7,0.5,1.4,0.7,2h0.1c0.2-0.6,0.5-1.3,0.8-2l1.8-4.4h1.7l-3.6,7.8h-1.6l-3.4-7.8
		H1092.1z"/>
	<path class="st45" d="M1102.3,307.8c0,0.5-0.4,0.9-1.1,0.9c-0.6,0-1-0.4-1-0.9c0-0.5,0.4-0.9,1-0.9
		C1101.9,307,1102.3,307.3,1102.3,307.8z M1100.5,317.8V310h1.6v7.8H1100.5z"/>
	<path class="st45" d="M1112.6,306.4v9.4c0,0.7,0,1.5,0.1,2h-1.5l-0.1-1.4h0c-0.5,0.9-1.6,1.5-3.1,1.5c-2.2,0-3.9-1.6-3.9-4
		c0-2.6,1.8-4.2,4.1-4.2c1.4,0,2.3,0.6,2.7,1.2h0v-4.7L1112.6,306.4L1112.6,306.4z M1111,313.2c0-0.2,0-0.4-0.1-0.6
		c-0.2-0.9-1.1-1.6-2.4-1.6c-1.7,0-2.7,1.3-2.7,3c0,1.6,0.9,2.9,2.7,2.9c1.1,0,2.1-0.6,2.4-1.7c0.1-0.2,0.1-0.4,0.1-0.6L1111,313.2
		L1111,313.2z"/>
	<path class="st45" d="M1120.4,317.8l-0.1-1h-0.1c-0.5,0.6-1.5,1.2-2.8,1.2c-1.8,0-2.8-1.1-2.8-2.2c0-1.9,1.9-2.9,5.4-2.9v-0.2
		c0-0.6-0.2-1.8-2.1-1.8c-0.8,0-1.7,0.2-2.3,0.6l-0.4-0.9c0.8-0.4,1.8-0.7,3-0.7c2.8,0,3.4,1.6,3.4,3.2v2.9c0,0.7,0,1.3,0.2,1.9
		L1120.4,317.8L1120.4,317.8z M1120.1,313.9c-1.8,0-3.8,0.2-3.8,1.8c0,0.9,0.7,1.4,1.6,1.4c1.2,0,1.9-0.6,2.2-1.3
		c0.1-0.1,0.1-0.3,0.1-0.5L1120.1,313.9L1120.1,313.9z"/>
	<path class="st45" d="M1134.8,317.5c-0.4,0.2-1.4,0.5-2.6,0.5c-2.7,0-4.5-1.6-4.5-4c0-2.4,1.9-4.1,4.8-4.1c1,0,1.8,0.2,2.3,0.4
		l-0.4,1.1c-0.4-0.2-1-0.4-1.9-0.4c-2.1,0-3.2,1.3-3.2,3c0,1.8,1.3,2.9,3.1,2.9c0.9,0,1.6-0.2,2-0.4L1134.8,317.5z"/>
	<path class="st45" d="M1144.7,313.9c0,2.9-2.3,4.1-4.5,4.1c-2.4,0-4.3-1.5-4.3-4c0-2.6,2-4.1,4.5-4.1
		C1143,309.9,1144.7,311.5,1144.7,313.9z M1137.6,314c0,1.7,1.1,3,2.7,3c1.6,0,2.8-1.3,2.8-3c0-1.3-0.8-3-2.7-3
		C1138.4,310.9,1137.6,312.5,1137.6,314z"/>
	<path class="st45" d="M1146.8,312.1c0-0.8,0-1.5-0.1-2.1h1.5l0.1,1.3h0c0.4-0.7,1.5-1.5,3-1.5c1.2,0,3.2,0.6,3.2,3.3v4.7h-1.7v-4.5
		c0-1.3-0.5-2.3-2.1-2.3c-1.1,0-1.9,0.7-2.2,1.5c-0.1,0.2-0.1,0.4-0.1,0.7v4.7h-1.6L1146.8,312.1L1146.8,312.1z"/>
	<path class="st45" d="M1156.9,316.4c0.5,0.3,1.3,0.6,2.2,0.6c1.2,0,1.8-0.5,1.8-1.2c0-0.7-0.5-1-1.7-1.4c-1.6-0.5-2.4-1.3-2.4-2.2
		c0-1.3,1.2-2.3,3.1-2.3c0.9,0,1.7,0.2,2.2,0.5l-0.4,1c-0.3-0.2-1-0.5-1.8-0.5c-1,0-1.5,0.5-1.5,1.1c0,0.6,0.5,0.9,1.7,1.3
		c1.6,0.5,2.4,1.2,2.4,2.4c0,1.4-1.2,2.3-3.4,2.3c-1,0-1.9-0.2-2.5-0.5L1156.9,316.4z"/>
	<path class="st45" d="M1165.5,314.2c0,1.9,1.5,2.7,3.1,2.7c1.2,0,1.9-0.2,2.5-0.4l0.3,1c-0.6,0.2-1.6,0.5-3,0.5
		c-2.8,0-4.4-1.6-4.4-3.9c0-2.4,1.6-4.2,4.2-4.2c2.9,0,3.7,2.2,3.7,3.7c0,0.3,0,0.5-0.1,0.7H1165.5z M1170.3,313.2
		c0-0.9-0.4-2.3-2.3-2.3c-1.7,0-2.4,1.3-2.5,2.3H1170.3z"/>
	<path class="st45" d="M1180.1,316.6L1180.1,316.6c-0.5,0.8-1.5,1.4-3,1.4c-2.1,0-3.8-1.6-3.8-4c0-2.9,2.2-4.2,4.1-4.2
		c1.4,0,2.3,0.6,2.8,1.4h0l0.1-1.2h1.6c0,0.7-0.1,1.3-0.1,2.1v8.9h-1.6L1180.1,316.6L1180.1,316.6z M1180.1,313.2
		c0-0.2,0-0.4-0.1-0.6c-0.2-0.9-1.1-1.6-2.3-1.6c-1.7,0-2.7,1.2-2.7,3c0,1.5,0.9,2.9,2.7,2.9c1.1,0,2-0.6,2.4-1.5
		c0.1-0.2,0.1-0.5,0.1-0.7L1180.1,313.2L1180.1,313.2z"/>
	<path class="st45" d="M1192,315.7c0,0.8,0,1.5,0.1,2.1h-1.4l-0.1-1.3h0c-0.4,0.6-1.4,1.5-3,1.5c-1.4,0-3.1-0.7-3.1-3.4V310h1.6v4.3
		c0,1.5,0.5,2.5,2,2.5c1.1,0,1.9-0.7,2.2-1.3c0.1-0.2,0.2-0.5,0.2-0.7V310h1.6L1192,315.7L1192,315.7z"/>
	<path class="st45" d="M1199.7,317.8l-0.1-1h-0.1c-0.5,0.6-1.5,1.2-2.8,1.2c-1.8,0-2.8-1.1-2.8-2.2c0-1.9,1.9-2.9,5.4-2.9v-0.2
		c0-0.6-0.2-1.8-2.1-1.8c-0.8,0-1.7,0.2-2.3,0.6l-0.4-0.9c0.8-0.4,1.8-0.7,3-0.7c2.8,0,3.4,1.6,3.4,3.2v2.9c0,0.7,0,1.3,0.2,1.9
		L1199.7,317.8L1199.7,317.8z M1199.5,313.9c-1.8,0-3.8,0.2-3.8,1.8c0,0.9,0.7,1.4,1.6,1.4c1.2,0,1.9-0.6,2.2-1.3
		c0.1-0.1,0.1-0.3,0.1-0.5V313.9z"/>
	<path class="st45" d="M1205.6,307.8v2.2h2.3v1.1h-2.3v4.2c0,1,0.3,1.5,1.2,1.5c0.4,0,0.8,0,0.9-0.1l0.1,1.1
		c-0.3,0.1-0.8,0.2-1.5,0.2c-0.8,0-1.4-0.2-1.8-0.6c-0.5-0.4-0.6-1.1-0.6-2v-4.3h-1.4V310h1.4v-1.9L1205.6,307.8z"/>
	<path class="st45" d="M1221.3,315.7c0,0.8,0,1.5,0.1,2.1h-1.4l-0.1-1.3h0c-0.4,0.6-1.4,1.5-3,1.5c-1.4,0-3.1-0.7-3.1-3.4V310h1.6
		v4.3c0,1.5,0.5,2.5,2,2.5c1.1,0,1.9-0.7,2.2-1.3c0.1-0.2,0.2-0.5,0.2-0.7V310h1.6L1221.3,315.7L1221.3,315.7z"/>
	<path class="st45" d="M1224.1,312.5c0-0.9,0-1.7-0.1-2.4h1.4l0.1,1.5h0.1c0.4-1,1.4-1.7,2.5-1.7c0.2,0,0.3,0,0.5,0v1.3
		c-0.2,0-0.3,0-0.6,0c-1.2,0-2,0.8-2.2,1.8c0,0.2-0.1,0.4-0.1,0.7v4.2h-1.6V312.5z"/>
	<path class="st45" d="M1230.2,312.1c0-0.8,0-1.5-0.1-2.1h1.4l0.1,1.3h0c0.4-0.7,1.5-1.5,3-1.5c1.2,0,3.2,0.6,3.2,3.3v4.7h-1.6v-4.5
		c0-1.3-0.5-2.3-2.1-2.3c-1.1,0-1.9,0.7-2.2,1.5c-0.1,0.2-0.1,0.4-0.1,0.7v4.7h-1.6L1230.2,312.1L1230.2,312.1z"/>
	<path class="st45" d="M1245.6,317.8l-0.1-1h-0.1c-0.5,0.6-1.5,1.2-2.8,1.2c-1.8,0-2.8-1.1-2.8-2.2c0-1.9,1.9-2.9,5.4-2.9v-0.2
		c0-0.6-0.2-1.8-2.1-1.8c-0.8,0-1.7,0.2-2.3,0.6l-0.4-0.9c0.8-0.4,1.8-0.7,3-0.7c2.8,0,3.4,1.6,3.4,3.2v2.9c0,0.7,0,1.3,0.2,1.9
		L1245.6,317.8L1245.6,317.8z M1245.4,313.9c-1.8,0-3.8,0.2-3.8,1.8c0,0.9,0.7,1.4,1.6,1.4c1.2,0,1.9-0.6,2.2-1.3
		c0.1-0.1,0.1-0.3,0.1-0.5L1245.4,313.9L1245.4,313.9z"/>
	<path class="st45" d="M1253.3,316.4c0.5,0.3,1.3,0.6,2.2,0.6c1.2,0,1.8-0.5,1.8-1.2c0-0.7-0.5-1-1.7-1.4c-1.6-0.5-2.4-1.3-2.4-2.2
		c0-1.3,1.2-2.3,3.1-2.3c0.9,0,1.7,0.2,2.2,0.5l-0.4,1c-0.4-0.2-1-0.5-1.8-0.5c-1,0-1.5,0.5-1.5,1.1c0,0.6,0.5,0.9,1.7,1.3
		c1.6,0.5,2.4,1.2,2.4,2.4c0,1.4-1.2,2.3-3.4,2.3c-1,0-1.9-0.2-2.5-0.5L1253.3,316.4z"/>
	<path class="st45" d="M1261.9,314.2c0,1.9,1.4,2.7,3.1,2.7c1.2,0,1.9-0.2,2.5-0.4l0.3,1c-0.6,0.2-1.6,0.5-3,0.5
		c-2.8,0-4.4-1.6-4.4-3.9c0-2.4,1.6-4.2,4.2-4.2c2.9,0,3.7,2.2,3.7,3.7c0,0.3,0,0.5-0.1,0.7H1261.9z M1266.7,313.2
		c0-0.9-0.4-2.3-2.3-2.3c-1.7,0-2.4,1.3-2.5,2.3H1266.7z"/>
	<path class="st45" d="M1278.1,306.4v9.4c0,0.7,0,1.5,0.1,2h-1.5l-0.1-1.4h0c-0.5,0.9-1.6,1.5-3.1,1.5c-2.2,0-3.9-1.6-3.9-4
		c0-2.6,1.8-4.2,4.1-4.2c1.4,0,2.3,0.6,2.7,1.2h0v-4.7L1278.1,306.4L1278.1,306.4z M1276.5,313.2c0-0.2,0-0.4-0.1-0.6
		c-0.2-0.9-1.1-1.6-2.4-1.6c-1.7,0-2.7,1.3-2.7,3c0,1.6,0.9,2.9,2.7,2.9c1.1,0,2.1-0.6,2.4-1.7c0.1-0.2,0.1-0.4,0.1-0.6
		L1276.5,313.2L1276.5,313.2z"/>
	<path class="st45" d="M1285.4,310l1.8,4.4c0.3,0.7,0.6,1.4,0.7,2h0.1c0.2-0.6,0.5-1.3,0.8-2l1.8-4.4h1.7l-3.6,7.8h-1.6l-3.4-7.8
		H1285.4z"/>
	<path class="st45" d="M1294.5,314.2c0,1.9,1.5,2.7,3.1,2.7c1.2,0,1.9-0.2,2.5-0.4l0.3,1c-0.6,0.2-1.6,0.5-3,0.5
		c-2.8,0-4.4-1.6-4.4-3.9c0-2.4,1.6-4.2,4.2-4.2c2.9,0,3.7,2.2,3.7,3.7c0,0.3,0,0.5-0.1,0.7H1294.5z M1299.3,313.2
		c0-0.9-0.4-2.3-2.3-2.3c-1.7,0-2.4,1.3-2.5,2.3H1299.3z"/>
	<path class="st45" d="M1302.9,306.4h1.6v11.5h-1.6V306.4z"/>
</g>
<path class="st46" d="M207.1,432c0,0-3.4,18.9-22.3,20.9c0,0,17.4,5.5,20.6,23c0,0,2.1-18,21.5-20.1
	C226.8,455.8,208.7,450.8,207.1,432z"/>
<path class="st46" d="M171.1,402.5c0,0-2.1,11.8-14,13.1c0,0,10.9,3.5,12.9,14.4c0,0,1.3-11.2,13.4-12.6
	C183.5,417.4,172.2,414.2,171.1,402.5z"/>
<path class="st46" d="M496.1,673c0,0-3.2,17.8-21,19.7c0,0,16.4,5.2,19.4,21.7c0,0,2-16.9,20.2-19
	C514.7,695.4,497.7,690.7,496.1,673z"/>
<path class="st46" d="M525.9,644.7c0,0-1.8,10.1-11.9,11.2c0,0,9.3,3,11,12.3c0,0,1.1-9.6,11.5-10.8
	C536.5,657.4,526.8,654.7,525.9,644.7z"/>
<path class="st46" d="M562.8,673c0,0-1.3,7.1-8.3,7.8c0,0,6.5,2.1,7.7,8.6c0,0,0.8-6.7,8-7.5C570.1,681.9,563.4,680,562.8,673z"/>
</svg>
